<svg xmlns="http://www.w3.org/2000/svg" xmlns:xlink="http://www.w3.org/1999/xlink" xmlns:lucid="lucid" width="1825.83" height="800"><g transform="translate(-34.16512345679011 -40)" lucid:page-tab-id="0_0"><path d="M0 0h1870.4v1323.2H0z" fill="#fff"/><path d="M840 120h760v700H840z" stroke="#000" stroke-width="2" fill="#fff"/><path d="M129.7 142.64c-.93.1-1.7.28-2.45.66l-32.87 16.2c-1.8.85-3.03 2.37-3.4 4.36l-8.16 36.47c-.38 1.7-.1 3.4.86 4.92.1.2.2.3.38.48l22.73 29.17c1.22 1.6 2.93 2.46 4.92 2.46h36.56c2 0 3.7-.85 4.93-2.46l22.74-29.17c1.23-1.6 1.7-3.5 1.23-5.5l-8.14-36.37c-.38-2-1.6-3.5-3.4-4.36l-32.88-16.2c-1.05-.47-2-.76-3.04-.66z" stroke="#000" stroke-opacity="0" stroke-width="3.83" fill="#326ce5"/><path d="M129.7 140c-1 .1-1.8.3-2.6.7l-34.7 17.1c-1.9.9-3.2 2.5-3.6 4.6l-8.6 38.5c-.4 1.8-.1 3.6.9 5.2.1.2.2.3.4.5l24 30.8c1.3 1.7 3.1 2.6 5.2 2.6h38.6c2.1 0 3.9-.9 5.2-2.6l24-30.8c1.3-1.7 1.8-3.7 1.3-5.7l-8.6-38.5c-.4-2.1-1.7-3.7-3.6-4.6l-34.7-17.1c-1.1-.5-2.1-.8-3.2-.7zm0 2.7c1.1-.1 2 .1 3 .6l33 16.2c1.7.9 2.9 2.4 3.4 4.4l8.1 36.4c.4 2 0 3.8-1.2 5.4l-22.8 29.2c-1.2 1.6-2.9 2.5-4.9 2.5h-36.6c-2 0-3.7-.9-4.9-2.5L84 205.7c-.1-.1-.2-.3-.3-.5-1-1.5-1.3-3.1-.9-4.9l8.1-36.4c.5-2 1.6-3.5 3.4-4.4l33-16.2c.8-.4 1.5-.6 2.4-.7z" stroke="#000" stroke-opacity="0" stroke-width="3.83" fill="#fff"/><path d="M121.47 225.06c0 1.13.18 1.97.52 2.52.34.54.86.8 1.56.8.5 0 .9-.12 1.22-.4.33-.27.54-.7.6-1.26l1.4.1c-.1.82-.44 1.47-1.02 1.96-.56.48-1.3.73-2.16.73-1.16 0-2.05-.36-2.65-1.1-.6-.77-.9-1.87-.9-3.32 0-1.43.3-2.52.9-3.27.6-.74 1.5-1.12 2.63-1.12.85 0 1.55.23 2.1.68.56.45.9 1.06 1.05 1.86l-1.4.1c-.08-.46-.26-.84-.55-1.12-.3-.28-.7-.4-1.24-.4-.72 0-1.25.24-1.58.73-.33.5-.5 1.34-.5 2.53zM128.28 229.36v-6.54c0-.6-.02-1.26-.05-1.98h1.3l.06 1.74h.02c.22-.73.47-1.23.76-1.5.28-.27.7-.4 1.2-.4.2 0 .38.02.56.08v1.3c-.18-.05-.42-.08-.73-.08-.56 0-1 .25-1.3.76-.3.5-.45 1.23-.45 2.17v4.46zM138.7 227.98c-.26.55-.6.94-1.02 1.18-.42.23-.95.35-1.56.35-1.05 0-1.82-.35-2.3-1.08-.5-.72-.74-1.82-.74-3.3 0-2.96 1-4.44 3.04-4.44.62 0 1.14.12 1.56.35.42.24.76.62 1 1.13h.02V217.68h1.36v9.92c0 .88.02 1.47.05 1.76h-1.3c-.02-.08-.03-.3-.05-.6l-.03-.78zm-4.18-2.9c0 1.2.15 2.05.46 2.56.3.52.8.78 1.5.78.77 0 1.33-.28 1.68-.84.35-.55.53-1.42.53-2.6 0-1.12-.2-1.95-.54-2.47-.35-.5-.9-.78-1.68-.78-.7 0-1.2.27-1.5.8-.3.53-.46 1.38-.46 2.56z" stroke="#000" stroke-opacity="0" fill="#fff"/><path d="M153.62 183.44h-3.82V172.9c0-2.93-2.3-5.3-5.16-5.3h-10.22v-3.95c0-3.66-2.9-6.6-6.4-6.6-3.54 0-6.4 2.94-6.4 6.6v3.94h-10.26c-2.8 0-5.1 2.37-5.1 5.3v10.04h3.8c3.83 0 6.94 3.16 6.94 7.1 0 3.93-3.1 7.14-6.93 7.14h-3.82v10.03c0 2.9 2.3 5.28 5.1 5.28h9.74v-3.94c0-3.93 3.1-7.15 6.92-7.15s6.9 3.2 6.9 7.14v3.94h9.72c2.85 0 5.16-2.4 5.16-5.27v-10.57h3.82c3.54 0 6.4-2.94 6.4-6.6 0-3.6-2.86-6.6-6.4-6.6z" stroke="#000" stroke-opacity="0" stroke-width="1.74" fill="#fff"/><use xlink:href="#a" transform="matrix(1,0,0,1,50,249) translate(5.165123456790113 12.622222222222224)"/><use xlink:href="#b" transform="matrix(1,0,0,1,50,249) translate(44.96018518518518 31.55555555555556)"/><use xlink:href="#c" transform="matrix(1,0,0,1,50,249) translate(104.5212962962963 31.55555555555556)"/><use xlink:href="#d" transform="matrix(1,0,0,1,50,249) translate(25.281790123456787 50.488888888888894)"/><use xlink:href="#e" transform="matrix(1,0,0,1,50,249) translate(101.4533950617284 50.488888888888894)"/><path d="M1240 230h320v480h-320zM900 620h220v120H900z" stroke="#000" stroke-width="2" fill="#e5e5e5"/><use xlink:href="#f" transform="matrix(1,0,0,1,905,625) translate(74.525 48.775)"/><use xlink:href="#g" transform="matrix(1,0,0,1,905,625) translate(68.1 70.375)"/><path d="M900 440h220v120H900z" stroke="#000" stroke-width="2" fill="#e5e5e5"/><use xlink:href="#h" transform="matrix(1,0,0,1,905,445) translate(54.05 48.775)"/><use xlink:href="#g" transform="matrix(1,0,0,1,905,445) translate(68.1 70.375)"/><path d="M900 180h220v120H900z" stroke="#000" stroke-width="2" fill="#e5e5e5"/><use xlink:href="#i" transform="matrix(1,0,0,1,905,185) translate(19.625 48.775)"/><use xlink:href="#g" transform="matrix(1,0,0,1,905,185) translate(68.1 70.375)"/><path d="M1270 530h260v80h-260z" stroke="#000" stroke-width="2" fill="#ffeca9"/><use xlink:href="#j" transform="matrix(1,0,0,1,1275,535) translate(73.6 38.94166666666667)"/><use xlink:href="#k" transform="matrix(1,0,0,1,1275,535) translate(126.5 38.94166666666667)"/><path d="M1270 320h260v80h-260z" stroke="#000" stroke-width="2" fill="#ffeca9"/><use xlink:href="#l" transform="matrix(1,0,0,1,1275,325) translate(62 38.4625)"/><use xlink:href="#m" transform="matrix(1,0,0,1,1275,325) translate(140 38.4625)"/><path d="M1123 240c0 .55-.45 1-1 1s-1-.45-1-1 .45-1 1-1 1 .45 1 1zm4 0c0 .55-.44 1-1 1-.54 0-1-.45-1-1s.46-1 1-1c.56 0 1 .45 1 1zm4.02 0c0 .55-.45 1-1 1-.56 0-1-.45-1-1s.44-1 1-1c.55 0 1 .45 1 1zm4 0c0 .55-.44 1-1 1-.55 0-1-.45-1-1s.45-1 1-1c.56 0 1 .45 1 1zm4 0c0 .55-.44 1-1 1-.54 0-1-.45-1-1s.46-1 1-1c.56 0 1 .45 1 1zm4.02 0c0 .55-.45 1-1 1s-1-.45-1-1 .45-1 1-1 1 .45 1 1zm4 0c0 .55-.44 1-1 1-.54 0-1-.45-1-1s.46-1 1-1c.56 0 1 .45 1 1zm4.02 0c0 .55-.45 1-1 1-.56 0-1-.45-1-1s.44-1 1-1c.55 0 1 .45 1 1zm4 0c0 .55-.44 1-1 1-.55 0-1-.45-1-1s.45-1 1-1c.56 0 1 .45 1 1zm4 0c0 .55-.44 1-1 1-.54 0-1-.45-1-1s.46-1 1-1c.56 0 1 .45 1 1zm4.02 0c0 .55-.45 1-1 1s-1-.45-1-1 .45-1 1-1 1 .45 1 1zm4 0c0 .55-.44 1-1 1-.54 0-1-.45-1-1s.46-1 1-1c.56 0 1 .45 1 1zm4.02 0c0 .55-.45 1-1 1-.56 0-1-.45-1-1s.44-1 1-1c.55 0 1 .45 1 1zm4 0c0 .55-.44 1-1 1-.55 0-1-.45-1-1s.45-1 1-1c.56 0 1 .45 1 1zm4 0c0 .55-.44 1-1 1-.54 0-1-.45-1-1s.46-1 1-1c.56 0 1 .45 1 1zm4.02 0c0 .55-.45 1-1 1s-1-.45-1-1 .45-1 1-1 1 .45 1 1zm4 0c0 .55-.44 1-1 1-.54 0-1-.45-1-1s.46-1 1-1c.56 0 1 .45 1 1zm4.02 0c0 .55-.45 1-1 1-.56 0-1-.45-1-1s.44-1 1-1c.55 0 1 .45 1 1zm4 0c0 .55-.44 1-1 1-.55 0-1-.45-1-1s.45-1 1-1c.56 0 1 .45 1 1zm.86 3.15c0 .55-.45 1-1 1s-1-.45-1-1 .45-1 1-1 1 .45 1 1zm0 4c0 .56-.45 1-1 1s-1-.44-1-1c0-.54.45-1 1-1s1 .46 1 1zm0 4.02c0 .55-.45 1-1 1s-1-.45-1-1 .45-1 1-1 1 .45 1 1zm0 4c0 .56-.45 1-1 1s-1-.44-1-1c0-.55.45-1 1-1s1 .45 1 1zm0 4c0 .57-.45 1-1 1s-1-.43-1-1c0-.54.45-1 1-1s1 .46 1 1zm0 4.02c0 .55-.45 1-1 1s-1-.45-1-1c0-.56.45-1 1-1s1 .44 1 1zm0 4c0 .55-.45 1-1 1s-1-.45-1-1 .45-1 1-1 1 .45 1 1zm0 4c0 .56-.45 1-1 1s-1-.44-1-1c0-.54.45-1 1-1s1 .46 1 1zm0 4.02c0 .55-.45 1-1 1s-1-.45-1-1c0-.56.45-1 1-1s1 .44 1 1zm0 4c0 .56-.45 1-1 1s-1-.44-1-1c0-.55.45-1 1-1s1 .45 1 1zm0 4c0 .57-.45 1-1 1s-1-.43-1-1c0-.54.45-1 1-1s1 .46 1 1zm0 4.02c0 .55-.45 1-1 1s-1-.45-1-1 .45-1 1-1 1 .45 1 1zm0 4c0 .56-.45 1-1 1s-1-.44-1-1c0-.54.45-1 1-1s1 .46 1 1zm0 4.02c0 .55-.45 1-1 1s-1-.45-1-1c0-.56.45-1 1-1s1 .44 1 1zm0 4c0 .56-.45 1-1 1s-1-.44-1-1c0-.55.45-1 1-1s1 .45 1 1zm0 4c0 .57-.45 1-1 1s-1-.43-1-1c0-.54.45-1 1-1s1 .46 1 1zm0 4.02c0 .55-.45 1-1 1s-1-.45-1-1 .45-1 1-1 1 .45 1 1zm0 4c0 .56-.45 1-1 1s-1-.44-1-1c0-.54.45-1 1-1s1 .46 1 1zm0 4.02c0 .55-.45 1-1 1s-1-.45-1-1c0-.56.45-1 1-1s1 .44 1 1zm0 4c0 .56-.45 1-1 1s-1-.44-1-1c0-.55.45-1 1-1s1 .45 1 1zm0 4c0 .57-.45 1-1 1s-1-.43-1-1c0-.54.45-1 1-1s1 .46 1 1zm0 4.02c0 .55-.45 1-1 1s-1-.45-1-1 .45-1 1-1 1 .45 1 1zm0 4c0 .56-.45 1-1 1s-1-.44-1-1c0-.54.45-1 1-1s1 .46 1 1zm0 4.02c0 .55-.45 1-1 1s-1-.45-1-1 .45-1 1-1 1 .45 1 1zm0 4c0 .56-.45 1-1 1s-1-.44-1-1c0-.55.45-1 1-1s1 .45 1 1zm0 4c0 .57-.45 1-1 1s-1-.43-1-1c0-.54.45-1 1-1s1 .46 1 1zm0 4.02c0 .55-.45 1-1 1s-1-.45-1-1 .45-1 1-1 1 .45 1 1zm0 4c0 .56-.45 1-1 1s-1-.44-1-1c0-.54.45-1 1-1s1 .46 1 1zm0 4.02c0 .55-.45 1-1 1s-1-.45-1-1 .45-1 1-1 1 .45 1 1zm0 4c0 .56-.45 1-1 1s-1-.44-1-1c0-.55.45-1 1-1s1 .45 1 1zm3.4.62c0 .55-.45 1-1 1-.56 0-1-.45-1-1s.44-1 1-1c.55 0 1 .45 1 1zm4 0c0 .55-.45 1-1 1s-1-.45-1-1 .45-1 1-1 1 .45 1 1zm4 0c0 .55-.44 1-1 1-.54 0-1-.45-1-1s.46-1 1-1c.56 0 1 .45 1 1zm4.02 0c0 .55-.45 1-1 1s-1-.45-1-1 .45-1 1-1 1 .45 1 1zm4 0c0 .55-.44 1-1 1-.55 0-1-.45-1-1s.45-1 1-1c.56 0 1 .45 1 1zm4 0c0 .55-.43 1-1 1-.54 0-1-.45-1-1s.46-1 1-1c.57 0 1 .45 1 1zm4.02 0c0 .55-.45 1-1 1s-1-.45-1-1 .45-1 1-1 1 .45 1 1zm4 0c0 .55-.44 1-1 1-.54 0-1-.45-1-1s.46-1 1-1c.56 0 1 .45 1 1zm4.02 0c0 .55-.45 1-1 1s-1-.45-1-1 .45-1 1-1 1 .45 1 1zm4 0c0 .55-.44 1-1 1-.55 0-1-.45-1-1s.45-1 1-1c.56 0 1 .45 1 1zm4 0c0 .55-.43 1-1 1-.54 0-1-.45-1-1s.46-1 1-1c.57 0 1 .45 1 1zm4.02 0c0 .55-.45 1-1 1s-1-.45-1-1 .45-1 1-1 1 .45 1 1zm4 0c0 .55-.44 1-1 1-.54 0-1-.45-1-1s.46-1 1-1c.56 0 1 .45 1 1zm4.02 0c0 .55-.45 1-1 1s-1-.45-1-1 .45-1 1-1 1 .45 1 1z"/><path d="M1122.03 241H1121v-2h1.03z"/><path d="M1265.76 360l-14.26 4.64v-9.28z" stroke="#000" stroke-width="2"/><use xlink:href="#n" transform="matrix(1,0,0,1,1158.6650786522246,201.63628722359837) translate(0 12.622222222222224)"/><use xlink:href="#o" transform="matrix(1,0,0,1,1158.6650786522246,201.63628722359837) translate(60.481481481481474 12.622222222222224)"/><use xlink:href="#p" transform="matrix(1,0,0,1,1158.6650786522246,201.63628722359837) translate(0 31.55555555555556)"/><path d="M1401 402c0 .55-.45 1-1 1s-1-.45-1-1 .45-1 1-1 1 .45 1 1zm0 4.02c0 .55-.45 1-1 1s-1-.45-1-1 .45-1 1-1 1 .45 1 1zm0 4.02c0 .55-.45 1-1 1s-1-.45-1-1c0-.56.45-1 1-1s1 .44 1 1zm0 4.02c0 .55-.45 1-1 1s-1-.45-1-1c0-.56.45-1 1-1s1 .44 1 1zm0 4c0 .57-.45 1-1 1s-1-.43-1-1c0-.54.45-1 1-1s1 .46 1 1zm0 4.03c0 .54-.45 1-1 1s-1-.46-1-1c0-.56.45-1 1-1s1 .44 1 1zm0 4c0 .56-.45 1-1 1s-1-.44-1-1c0-.54.45-1 1-1s1 .46 1 1zm0 4.03c0 .55-.45 1-1 1s-1-.45-1-1 .45-1 1-1 1 .45 1 1zm0 4.02c0 .55-.45 1-1 1s-1-.45-1-1 .45-1 1-1 1 .45 1 1zm0 4.02c0 .55-.45 1-1 1s-1-.45-1-1c0-.56.45-1 1-1s1 .44 1 1zm0 4c0 .57-.45 1-1 1s-1-.43-1-1c0-.54.45-1 1-1s1 .46 1 1zm0 4.03c0 .56-.45 1-1 1s-1-.44-1-1c0-.55.45-1 1-1s1 .45 1 1zm0 4.02c0 .55-.45 1-1 1s-1-.45-1-1 .45-1 1-1 1 .45 1 1zm0 4.02c0 .55-.45 1-1 1s-1-.45-1-1 .45-1 1-1 1 .45 1 1zm0 4.02c0 .55-.45 1-1 1s-1-.45-1-1 .45-1 1-1 1 .45 1 1zm0 4.02c0 .55-.45 1-1 1s-1-.45-1-1c0-.56.45-1 1-1s1 .44 1 1zm0 4.02c0 .55-.45 1-1 1s-1-.45-1-1c0-.56.45-1 1-1s1 .44 1 1zm0 4c0 .57-.45 1-1 1s-1-.43-1-1c0-.54.45-1 1-1s1 .46 1 1zm0 4.03c0 .55-.45 1-1 1s-1-.45-1-1 .45-1 1-1 1 .45 1 1zm0 4.02c0 .55-.45 1-1 1s-1-.45-1-1 .45-1 1-1 1 .45 1 1zm0 4.02c0 .55-.45 1-1 1s-1-.45-1-1 .45-1 1-1 1 .45 1 1zm0 4.02c0 .54-.45 1-1 1s-1-.46-1-1c0-.56.45-1 1-1s1 .44 1 1zm0 4c0 .56-.45 1-1 1s-1-.44-1-1c0-.55.45-1 1-1s1 .45 1 1zm0 4.02c0 .56-.45 1-1 1s-1-.44-1-1c0-.55.45-1 1-1s1 .45 1 1zm0 4.02c0 .56-.45 1-1 1s-1-.44-1-1c0-.55.45-1 1-1s1 .45 1 1zm0 4.02c0 .55-.45 1-1 1s-1-.45-1-1 .45-1 1-1 1 .45 1 1zm0 4.02c0 .55-.45 1-1 1s-1-.45-1-1 .45-1 1-1 1 .45 1 1z"/><path d="M1401 402.03h-2V401h2z"/><path d="M1400 525.76l-4.64-14.26h9.28z" stroke="#000" stroke-width="2"/><path d="M1533 570c0 .55-.45 1-1 1s-1-.45-1-1 .45-1 1-1 1 .45 1 1zm4.02 0c0 .55-.44 1-1 1-.55 0-1-.45-1-1s.45-1 1-1c.56 0 1 .45 1 1zm4.03 0c0 .55-.45 1-1 1-.56 0-1-.45-1-1s.44-1 1-1c.55 0 1 .45 1 1zm4.02 0c0 .55-.45 1-1 1s-1-.45-1-1 .45-1 1-1 1 .45 1 1zm4.02 0c0 .55-.46 1-1 1-.56 0-1-.45-1-1s.44-1 1-1c.54 0 1 .45 1 1zm4 0c0 .55-.43 1-1 1-.54 0-1-.45-1-1s.46-1 1-1c.57 0 1 .45 1 1zm4.04 0c0 .55-.45 1-1 1-.56 0-1-.45-1-1s.44-1 1-1c.55 0 1 .45 1 1zm4.02 0c0 .55-.45 1-1 1s-1-.45-1-1 .45-1 1-1 1 .45 1 1zm4.02 0c0 .55-.45 1-1 1s-1-.45-1-1 .45-1 1-1 1 .45 1 1zm4.03 0c0 .55-.44 1-1 1-.55 0-1-.45-1-1s.45-1 1-1c.56 0 1 .45 1 1zm4.03 0c0 .55-.45 1-1 1s-1-.45-1-1 .45-1 1-1 1 .45 1 1zm4.02 0c0 .55-.45 1-1 1s-1-.45-1-1 .45-1 1-1 1 .45 1 1zm4.02 0c0 .55-.44 1-1 1-.55 0-1-.45-1-1s.45-1 1-1c.56 0 1 .45 1 1zm4.03 0c0 .55-.45 1-1 1-.56 0-1-.45-1-1s.44-1 1-1c.55 0 1 .45 1 1zm4.02 0c0 .55-.45 1-1 1s-1-.45-1-1 .45-1 1-1 1 .45 1 1zm4.02 0c0 .55-.45 1-1 1s-1-.45-1-1 .45-1 1-1 1 .45 1 1zm4.02 0c0 .55-.44 1-1 1-.55 0-1-.45-1-1s.45-1 1-1c.56 0 1 .45 1 1zm4.03 0c0 .55-.46 1-1 1-.57 0-1-.45-1-1s.43-1 1-1c.54 0 1 .45 1 1zm4 0c0 .55-.44 1-1 1-.54 0-1-.45-1-1s.46-1 1-1c.56 0 1 .45 1 1zm4.03 0c0 .55-.44 1-1 1-.55 0-1-.45-1-1s.45-1 1-1c.56 0 1 .45 1 1zm4.03 0c0 .55-.45 1-1 1-.56 0-1-.45-1-1s.44-1 1-1c.55 0 1 .45 1 1zm4.02 0c0 .55-.45 1-1 1s-1-.45-1-1 .45-1 1-1 1 .45 1 1zm4.02 0c0 .55-.45 1-1 1s-1-.45-1-1 .45-1 1-1 1 .45 1 1zm4.02 0c0 .55-.44 1-1 1-.55 0-1-.45-1-1s.45-1 1-1c.56 0 1 .45 1 1zm4.03 0c0 .55-.45 1-1 1-.56 0-1-.45-1-1s.44-1 1-1c.55 0 1 .45 1 1zm4.02 0c0 .55-.45 1-1 1s-1-.45-1-1 .45-1 1-1 1 .45 1 1zm4.02 0c0 .55-.46 1-1 1-.56 0-1-.45-1-1s.44-1 1-1c.54 0 1 .45 1 1zm4.02 0c0 .55-.45 1-1 1-.56 0-1-.45-1-1s.44-1 1-1c.55 0 1 .45 1 1zm4.02 0c0 .55-.45 1-1 1s-1-.45-1-1 .45-1 1-1 1 .45 1 1zm4.02 0c0 .55-.45 1-1 1s-1-.45-1-1 .45-1 1-1 1 .45 1 1zm4.02 0c0 .55-.44 1-1 1-.55 0-1-.45-1-1s.45-1 1-1c.56 0 1 .45 1 1zm4.03 0c0 .55-.44 1-1 1-.55 0-1-.45-1-1s.45-1 1-1c.56 0 1 .45 1 1zm4.03 0c0 .55-.45 1-1 1s-1-.45-1-1 .45-1 1-1 1 .45 1 1zm4.02 0c0 .55-.45 1-1 1s-1-.45-1-1 .45-1 1-1 1 .45 1 1zm4.02 0c0 .55-.44 1-1 1-.55 0-1-.45-1-1s.45-1 1-1c.56 0 1 .45 1 1zm4.03 0c0 .55-.45 1-1 1-.56 0-1-.45-1-1s.44-1 1-1c.55 0 1 .45 1 1zm4.02 0c0 .55-.45 1-1 1s-1-.45-1-1 .45-1 1-1 1 .45 1 1zm4.02 0c0 .55-.44 1-1 1-.55 0-1-.45-1-1s.45-1 1-1c.56 0 1 .45 1 1zm4.03 0c0 .55-.45 1-1 1-.56 0-1-.45-1-1s.44-1 1-1c.55 0 1 .45 1 1zm4.02 0c0 .55-.46 1-1 1-.56 0-1-.45-1-1s.44-1 1-1c.54 0 1 .45 1 1zm4 0c0 .55-.44 1-1 1-.54 0-1-.45-1-1s.46-1 1-1c.56 0 1 .45 1 1zm4.03 0c0 .55-.44 1-1 1-.55 0-1-.45-1-1s.45-1 1-1c.56 0 1 .45 1 1zm4.03 0c0 .55-.45 1-1 1-.56 0-1-.45-1-1s.44-1 1-1c.55 0 1 .45 1 1zm4.02 0c0 .55-.45 1-1 1s-1-.45-1-1 .45-1 1-1 1 .45 1 1zm4.02 0c0 .55-.45 1-1 1s-1-.45-1-1 .45-1 1-1 1 .45 1 1zm4.03 0c0 .55-.45 1-1 1-.56 0-1-.45-1-1s.44-1 1-1c.55 0 1 .45 1 1zm4.02 0c0 .55-.45 1-1 1s-1-.45-1-1 .45-1 1-1 1 .45 1 1zm4.02 0c0 .55-.45 1-1 1s-1-.45-1-1 .45-1 1-1 1 .45 1 1zm4.02 0c0 .55-.45 1-1 1-.56 0-1-.45-1-1s.44-1 1-1c.55 0 1 .45 1 1zm4.02 0c0 .55-.45 1-1 1-.56 0-1-.45-1-1s.44-1 1-1c.55 0 1 .45 1 1zm4.02 0c0 .55-.45 1-1 1s-1-.45-1-1 .45-1 1-1 1 .45 1 1zm4.02 0c0 .55-.45 1-1 1s-1-.45-1-1 .45-1 1-1 1 .45 1 1zm4.02 0c0 .55-.44 1-1 1-.55 0-1-.45-1-1s.45-1 1-1c.56 0 1 .45 1 1zm4.03 0c0 .55-.44 1-1 1-.54 0-1-.45-1-1s.46-1 1-1c.56 0 1 .45 1 1zm4.03 0c0 .55-.45 1-1 1s-1-.45-1-1 .45-1 1-1 1 .45 1 1zm4.02 0c0 .55-.44 1-1 1-.55 0-1-.45-1-1s.45-1 1-1c.56 0 1 .45 1 1zm4.03 0c0 .55-.45 1-1 1-.56 0-1-.45-1-1s.44-1 1-1c.55 0 1 .45 1 1zm4.02 0c0 .55-.45 1-1 1s-1-.45-1-1 .45-1 1-1 1 .45 1 1zm4.02 0c0 .55-.45 1-1 1s-1-.45-1-1 .45-1 1-1 1 .45 1 1zm4.02 0c0 .55-.44 1-1 1-.55 0-1-.45-1-1s.45-1 1-1c.56 0 1 .45 1 1zm4.03 0c0 .55-.45 1-1 1-.56 0-1-.45-1-1s.44-1 1-1c.55 0 1 .45 1 1zm4.02 0c0 .55-.46 1-1 1-.56 0-1-.45-1-1s.44-1 1-1c.54 0 1 .45 1 1zm2.6 1.4c0 .56-.45 1-1 1s-1-.44-1-1c0-.54.45-1 1-1s1 .46 1 1zm0 4.04c0 .55-.45 1-1 1s-1-.45-1-1c0-.56.45-1 1-1s1 .44 1 1zm0 4.02c0 .55-.45 1-1 1s-1-.45-1-1 .45-1 1-1 1 .45 1 1zm0 4.02c0 .55-.45 1-1 1s-1-.45-1-1 .45-1 1-1 1 .45 1 1zm0 4.02c0 .56-.45 1-1 1s-1-.44-1-1c0-.55.45-1 1-1s1 .45 1 1z"/><path d="M1532.03 571H1531v-2h1.03z"/><path d="M1780 606.8l-4.64-14.27h9.28z" stroke="#000" stroke-width="2"/><use xlink:href="#q" transform="matrix(1,0,0,1,1607.182114726988,528.1333333333334) translate(0 12.622222222222224)"/><use xlink:href="#r" transform="matrix(1,0,0,1,1607.182114726988,528.1333333333334) translate(33.26481481481481 12.622222222222224)"/><use xlink:href="#s" transform="matrix(1,0,0,1,1607.182114726988,528.1333333333334) translate(106.80679012345679 12.622222222222224)"/><use xlink:href="#t" transform="matrix(1,0,0,1,1607.182114726988,528.1333333333334) translate(133.9358024691358 12.622222222222224)"/><use xlink:href="#u" transform="matrix(1,0,0,1,1607.182114726988,528.1333333333334) translate(0 31.55555555555556)"/><use xlink:href="#v" transform="matrix(1,0,0,1,1607.182114726988,528.1333333333334) translate(17.530864197530864 31.55555555555556)"/><use xlink:href="#w" transform="matrix(1,0,0,1,1607.182114726988,528.1333333333334) translate(63.98765432098766 31.55555555555556)"/><path d="M329.7 62.64c-.93.1-1.7.28-2.45.66l-32.87 16.2c-1.8.85-3.03 2.37-3.4 4.36l-8.16 36.47c-.38 1.7-.1 3.4.86 4.92.1.2.2.3.38.48l22.73 29.17c1.22 1.6 2.93 2.46 4.92 2.46h36.56c2 0 3.7-.85 4.93-2.46l22.74-29.17c1.23-1.6 1.7-3.5 1.23-5.5l-8.14-36.37c-.38-2-1.6-3.5-3.4-4.36l-32.88-16.2c-1.05-.47-2-.76-3.04-.66z" stroke="#000" stroke-opacity="0" stroke-width="3.83" fill="#326ce5"/><path d="M329.7 60c-1 .1-1.8.3-2.6.7l-34.7 17.1c-1.9.9-3.2 2.5-3.6 4.6l-8.6 38.5c-.4 1.8-.1 3.6.9 5.2.1.2.2.3.4.5l24 30.8c1.3 1.7 3.1 2.6 5.2 2.6h38.6c2.1 0 3.9-.9 5.2-2.6l24-30.8c1.3-1.7 1.8-3.7 1.3-5.7l-8.6-38.5c-.4-2.1-1.7-3.7-3.6-4.6l-34.7-17.1c-1.1-.5-2.1-.8-3.2-.7zm0 2.7c1.1-.1 2 .1 3 .6l33 16.2c1.7.9 2.9 2.4 3.4 4.4l8.1 36.4c.4 2 0 3.8-1.2 5.4l-22.8 29.2c-1.2 1.6-2.9 2.5-4.9 2.5h-36.6c-2 0-3.7-.9-4.9-2.5L284 125.7c-.1-.1-.2-.3-.3-.5-1-1.5-1.3-3.1-.9-4.9l8.1-36.4c.5-2 1.6-3.5 3.4-4.4l33-16.2c.8-.4 1.5-.6 2.4-.7z" stroke="#000" stroke-opacity="0" stroke-width="3.83" fill="#fff"/><path d="M321.47 145.06c0 1.13.18 1.97.52 2.52.34.54.86.8 1.56.8.5 0 .9-.12 1.22-.4.33-.27.54-.7.6-1.26l1.4.1c-.1.82-.44 1.47-1.02 1.96-.56.48-1.3.73-2.16.73-1.16 0-2.05-.36-2.65-1.1-.6-.77-.9-1.87-.9-3.32 0-1.43.3-2.52.9-3.27.6-.74 1.5-1.12 2.63-1.12.85 0 1.55.23 2.1.68.56.45.9 1.06 1.05 1.86l-1.4.1c-.08-.46-.26-.84-.55-1.12-.3-.28-.7-.4-1.24-.4-.72 0-1.25.24-1.58.73-.33.5-.5 1.34-.5 2.53zM328.28 149.36v-6.54c0-.6-.02-1.26-.05-1.98h1.3l.06 1.74h.02c.22-.73.47-1.23.76-1.5.28-.27.7-.4 1.2-.4.2 0 .38.02.56.08v1.3c-.18-.05-.42-.08-.73-.08-.56 0-1 .25-1.3.76-.3.5-.45 1.23-.45 2.17v4.46zM338.7 147.98c-.26.55-.6.94-1.02 1.18-.42.23-.95.35-1.56.35-1.05 0-1.82-.35-2.3-1.08-.5-.72-.74-1.82-.74-3.3 0-2.96 1-4.44 3.04-4.44.62 0 1.14.12 1.56.35.42.24.76.62 1 1.13h.02V137.68h1.36v9.92c0 .88.02 1.47.05 1.76h-1.3c-.02-.08-.03-.3-.05-.6l-.03-.78zm-4.18-2.9c0 1.2.15 2.05.46 2.56.3.52.8.78 1.5.78.77 0 1.33-.28 1.68-.84.35-.55.53-1.42.53-2.6 0-1.12-.2-1.95-.54-2.47-.35-.5-.9-.78-1.68-.78-.7 0-1.2.27-1.5.8-.3.53-.46 1.38-.46 2.56z" stroke="#000" stroke-opacity="0" fill="#fff"/><path d="M353.62 103.44h-3.82V92.9c0-2.93-2.3-5.3-5.16-5.3h-10.22v-3.95c0-3.66-2.9-6.6-6.4-6.6-3.54 0-6.4 2.94-6.4 6.6v3.94h-10.26c-2.8 0-5.1 2.37-5.1 5.3v10.04h3.8c3.83 0 6.94 3.16 6.94 7.1 0 3.93-3.1 7.14-6.93 7.14h-3.82v10.03c0 2.9 2.3 5.28 5.1 5.28h9.74v-3.94c0-3.93 3.1-7.15 6.92-7.15s6.9 3.2 6.9 7.14v3.94h9.72c2.85 0 5.16-2.4 5.16-5.27v-10.57h3.82c3.54 0 6.4-2.94 6.4-6.6 0-3.6-2.86-6.6-6.4-6.6z" stroke="#000" stroke-opacity="0" stroke-width="1.74" fill="#fff"/><use xlink:href="#x" transform="matrix(1,0,0,1,250,169) translate(5.165123456790113 12.622222222222224)"/><use xlink:href="#y" transform="matrix(1,0,0,1,250,169) translate(44.96018518518518 31.55555555555556)"/><use xlink:href="#z" transform="matrix(1,0,0,1,250,169) translate(104.5212962962963 31.55555555555556)"/><use xlink:href="#A" transform="matrix(1,0,0,1,250,169) translate(25.281790123456787 50.488888888888894)"/><use xlink:href="#B" transform="matrix(1,0,0,1,250,169) translate(101.4533950617284 50.488888888888894)"/><path d="M399.7 262.64c-.93.1-1.7.28-2.45.66l-32.87 16.2c-1.8.85-3.03 2.37-3.4 4.36l-8.16 36.47c-.38 1.7-.1 3.4.86 4.92.1.2.2.3.38.48l22.73 29.17c1.22 1.6 2.93 2.46 4.92 2.46h36.56c2 0 3.7-.85 4.93-2.46l22.74-29.17c1.23-1.6 1.7-3.5 1.23-5.5l-8.14-36.37c-.38-2-1.6-3.5-3.4-4.36l-32.88-16.2c-1.05-.47-2-.76-3.04-.66z" stroke="#000" stroke-opacity="0" stroke-width="3.83" fill="#326ce5"/><path d="M399.7 260c-1 .1-1.8.3-2.6.7l-34.7 17.1c-1.9.9-3.2 2.5-3.6 4.6l-8.6 38.5c-.4 1.8-.1 3.6.9 5.2.1.2.2.3.4.5l24 30.8c1.3 1.7 3.1 2.6 5.2 2.6h38.6c2.1 0 3.9-.9 5.2-2.6l24-30.8c1.3-1.7 1.8-3.7 1.3-5.7l-8.6-38.5c-.4-2.1-1.7-3.7-3.6-4.6l-34.7-17.1c-1.1-.5-2.1-.8-3.2-.7zm0 2.7c1.1-.1 2 .1 3 .6l33 16.2c1.7.9 2.9 2.4 3.4 4.4l8.1 36.4c.4 2 0 3.8-1.2 5.4l-22.8 29.2c-1.2 1.6-2.9 2.5-4.9 2.5h-36.6c-2 0-3.7-.9-4.9-2.5L354 325.7c-.1-.1-.2-.3-.3-.5-1-1.5-1.3-3.1-.9-4.9l8.1-36.4c.5-2 1.6-3.5 3.4-4.4l33-16.2c.8-.4 1.5-.6 2.4-.7z" stroke="#000" stroke-opacity="0" stroke-width="3.83" fill="#fff"/><path d="M391.47 345.06c0 1.13.18 1.97.52 2.52.34.54.86.8 1.56.8.5 0 .9-.12 1.22-.4.33-.27.54-.7.6-1.26l1.4.1c-.1.82-.44 1.47-1.02 1.96-.56.48-1.3.73-2.16.73-1.16 0-2.05-.36-2.65-1.1-.6-.77-.9-1.87-.9-3.32 0-1.43.3-2.52.9-3.27.6-.74 1.5-1.12 2.63-1.12.85 0 1.55.23 2.1.68.56.45.9 1.06 1.05 1.86l-1.4.1c-.08-.46-.26-.84-.55-1.12-.3-.28-.7-.4-1.24-.4-.72 0-1.25.24-1.58.73-.33.5-.5 1.34-.5 2.53zM398.28 349.36v-6.54c0-.6-.02-1.26-.05-1.98h1.3l.06 1.74h.02c.22-.73.47-1.23.76-1.5.28-.27.7-.4 1.2-.4.2 0 .38.02.56.08v1.3c-.18-.05-.42-.08-.73-.08-.56 0-1 .25-1.3.76-.3.5-.45 1.23-.45 2.17v4.46zM408.7 347.98c-.26.55-.6.94-1.02 1.18-.42.23-.95.35-1.56.35-1.05 0-1.82-.35-2.3-1.08-.5-.72-.74-1.82-.74-3.3 0-2.96 1-4.44 3.04-4.44.62 0 1.14.12 1.56.35.42.24.76.62 1 1.13h.02V337.68h1.36v9.92c0 .88.02 1.47.05 1.76h-1.3c-.02-.08-.03-.3-.05-.6l-.03-.78zm-4.18-2.9c0 1.2.15 2.05.46 2.56.3.52.8.78 1.5.78.77 0 1.33-.28 1.68-.84.35-.55.53-1.42.53-2.6 0-1.12-.2-1.95-.54-2.47-.35-.5-.9-.78-1.68-.78-.7 0-1.2.27-1.5.8-.3.53-.46 1.38-.46 2.56z" stroke="#000" stroke-opacity="0" fill="#fff"/><path d="M423.62 303.44h-3.82V292.9c0-2.93-2.3-5.3-5.16-5.3h-10.22v-3.95c0-3.66-2.9-6.6-6.4-6.6-3.54 0-6.4 2.94-6.4 6.6v3.94h-10.26c-2.8 0-5.1 2.37-5.1 5.3v10.04h3.8c3.83 0 6.94 3.16 6.94 7.1 0 3.93-3.1 7.14-6.93 7.14h-3.82v10.03c0 2.9 2.3 5.28 5.1 5.28h9.74v-3.94c0-3.93 3.1-7.15 6.92-7.15s6.9 3.2 6.9 7.14v3.94h9.72c2.85 0 5.16-2.4 5.16-5.27v-10.57h3.82c3.54 0 6.4-2.94 6.4-6.6 0-3.6-2.86-6.6-6.4-6.6z" stroke="#000" stroke-opacity="0" stroke-width="1.74" fill="#fff"/><use xlink:href="#i" transform="matrix(1,0,0,1,320,369) translate(-5.375 14.4)"/><use xlink:href="#C" transform="matrix(1,0,0,1,320,369) translate(40.025 36)"/><use xlink:href="#D" transform="matrix(1,0,0,1,320,369) translate(107.975 36)"/><use xlink:href="#E" transform="matrix(1,0,0,1,320,369) translate(21.074999999999996 57.6)"/><use xlink:href="#F" transform="matrix(1,0,0,1,320,369) translate(107.975 57.6)"/><path d="M560.66 309.3l.3.7-.3.7-.7.3-.72-.3-.3-.7.3-.7.7-.3zm-4 0l.3.7-.3.7-.7.3-.7-.3-.3-.7.3-.7.7-.3zm-3.97 0l.28.7-.3.7-.7.3-.7-.3-.3-.7.3-.7.7-.3zm-4 0l.3.7-.3.7-.7.3-.7-.3-.3-.7.3-.7.7-.3zm-3.98 0l.3.7-.3.7-.7.3-.72-.3-.3-.7.3-.7.7-.3zm-4 0l.3.7-.3.7-.7.3-.7-.3-.3-.7.3-.7.7-.3zm-3.97 0l.3.7-.3.7-.7.3-.72-.3-.3-.7.3-.7.7-.3zm-4 0l.3.7-.3.7-.7.3-.7-.3-.3-.7.3-.7.7-.3zm-3.97 0l.3.7-.3.7-.7.3-.72-.3-.3-.7.3-.7.7-.3zm-4 0l.3.7-.3.7-.7.3-.7-.3-.3-.7.3-.7.7-.3zm-3.97 0l.3.7-.3.7-.7.3-.7-.3-.3-.7.3-.7.7-.3zm-3.98 0l.3.7-.3.7-.7.3-.7-.3-.3-.7.3-.7.7-.3zm-3.98 0l.3.7-.3.7-.7.3-.72-.3-.3-.7.3-.7.7-.3zm-4 0l.3.7-.3.7-.7.3-.7-.3-.3-.7.3-.7.7-.3zm-3.98 0l.3.7-.3.7-.7.3-.7-.3-.3-.7.3-.7.7-.3zm-3.98 0l.3.7-.3.7-.7.3-.7-.3-.3-.7.3-.7.7-.3zm-4 0l.3.7-.3.7-.7.3-.7-.3-.3-.7.3-.7.7-.3zm-3.97 0l.3.7-.3.7-.7.3-.7-.3-.3-.7.3-.7.7-.3zm-3.98 0l.3.7-.3.7-.7.3-.7-.3-.3-.7.3-.7.7-.3zm-3.98 0l.3.7-.3.7-.7.3-.72-.3-.3-.7.3-.7.7-.3zm-4 0l.3.7-.3.7-.7.3-.7-.3-.3-.7.3-.7.7-.3zm-3.97 0l.3.7-.3.7-.7.3-.72-.3-.3-.7.3-.7.7-.3zm-4 0l.3.7-.3.7-.7.3-.7-.3-.3-.7.3-.7.7-.3zm-3.97 0l.3.7-.3.7-.7.3-.72-.3-.3-.7.3-.7.7-.3zm-4 0l.3.7-.3.7-.7.3-.7-.3-.3-.7.3-.7.7-.3zm-3.97 0l.3.7-.3.7-.7.3-.72-.3-.28-.7.3-.7.7-.3zm-4 0l.3.7-.3.7-.7.3-.7-.3-.3-.7.3-.7.7-.3zm-3.97 0l.3.7-.3.7-.7.3-.72-.3-.3-.7.3-.7.7-.3zm-4 0l.3.7-.3.7-.7.3-.7-.3-.3-.7.3-.7.7-.3zm111.65-3.94l.3.7-.3.7-.7.3-.7-.3-.3-.7.3-.7.7-.3zm0-4l.3.72-.3.7-.7.3-.7-.3-.3-.7.3-.7.7-.3zm0-3.97l.3.7-.3.7-.7.3-.7-.3-.3-.7.3-.7.7-.3zm0-4l.3.7-.3.72-.7.3-.7-.3-.3-.7.3-.72.7-.3zm0-3.98l.3.7-.3.7-.7.3-.7-.3-.3-.7.3-.7.7-.3zm0-4l.3.72-.3.7-.7.3-.7-.3-.3-.7.3-.7.7-.3zm0-3.97l.3.7-.3.7-.7.3-.7-.3-.3-.7.3-.7.7-.3zm0-4l.3.72-.3.7-.7.3-.7-.3-.3-.7.3-.7.7-.3zm0-3.97l.3.7-.3.7-.7.3-.7-.3-.3-.7.3-.7.7-.3zm0-4l.3.72-.3.7-.7.3-.7-.3-.3-.7.3-.7.7-.3zm0-3.97l.3.7-.3.72-.7.3-.7-.3-.3-.7.3-.7.7-.3zm0-3.98l.3.7-.3.7-.7.3-.7-.3-.3-.7.3-.7.7-.3zm0-3.98l.3.7-.3.7-.7.3-.7-.3-.3-.7.3-.7.7-.3zm0-4l.3.72-.3.7-.7.3-.7-.3-.3-.7.3-.7.7-.3zm0-3.98l.3.7-.3.72-.7.3-.7-.3-.3-.7.3-.72.7-.3zm0-3.98l.3.7-.3.7-.7.3-.7-.3-.3-.7.3-.7.7-.3zm0-4l.3.72-.3.7-.7.3-.7-.3-.3-.7.3-.7.7-.3zm316.52-2.3l.3.72-.3.7-.7.3-.7-.3-.3-.7.3-.7.7-.3zm-4 0l.3.72-.3.7-.7.3-.7-.3-.3-.7.3-.7.7-.3zm-3.97 0l.3.72-.3.7-.7.3-.7-.3-.3-.7.3-.7.7-.3zm-4 0l.3.72-.3.7-.7.3-.7-.3-.3-.7.3-.7.7-.3zm-3.97 0l.3.72-.3.7-.7.3-.7-.3-.3-.7.3-.7.7-.3zm-4 0l.3.72-.3.7-.7.3-.7-.3-.3-.7.3-.7.7-.3zm-3.97 0l.3.72-.3.7-.7.3-.7-.3-.3-.7.3-.7.7-.3zm-3.98 0l.3.72-.3.7-.7.3-.7-.3-.3-.7.3-.7.7-.3zm-3.98 0l.3.72-.3.7-.7.3-.72-.3-.3-.7.3-.7.7-.3zm-4 0l.3.72-.3.7-.7.3-.7-.3-.3-.7.3-.7.7-.3zm-3.97 0l.3.72-.3.7-.7.3-.72-.3-.3-.7.3-.7.7-.3zm-4 0l.3.72-.3.7-.7.3-.7-.3-.3-.7.3-.7.7-.3zm-3.97 0l.3.72-.3.7-.7.3-.72-.3-.3-.7.3-.7.7-.3zm-4 0l.3.72-.3.7-.7.3-.7-.3-.3-.7.3-.7.7-.3zm-3.97 0l.3.72-.3.7-.7.3-.72-.3-.28-.7.3-.7.7-.3zm-4 0l.3.72-.3.7-.7.3-.7-.3-.3-.7.3-.7.7-.3zm-3.97 0l.3.72-.3.7-.7.3-.72-.3-.3-.7.3-.7.7-.3zm-4 0l.3.72-.3.7-.7.3-.7-.3-.3-.7.3-.7.7-.3zm-3.97 0l.28.72-.3.7-.7.3-.7-.3-.3-.7.3-.7.7-.3zm-4 0l.3.72-.3.7-.7.3-.7-.3-.3-.7.3-.7.7-.3zm-3.98 0l.3.72-.3.7-.7.3-.72-.3-.3-.7.3-.7.7-.3zm-4 0l.3.72-.3.7-.7.3-.7-.3-.3-.7.3-.7.7-.3zm-3.97 0l.3.72-.3.7-.7.3-.72-.3-.3-.7.3-.7.7-.3zm-175.35 0l.3.72-.3.7-.7.3-.72-.3-.3-.7.3-.7.7-.3zm-4 0l.3.72-.3.7-.7.3-.7-.3-.3-.7.3-.7.7-.3zm-3.97 0l.3.72-.3.7-.7.3-.72-.3-.28-.7.3-.7.7-.3zm-4 0l.3.72-.3.7-.7.3-.7-.3-.3-.7.3-.7.7-.3zm-3.97 0l.3.72-.3.7-.7.3-.72-.3-.3-.7.3-.7.7-.3zm-4 0l.3.72-.3.7-.7.3-.7-.3-.3-.7.3-.7.7-.3zm-3.97 0l.28.72-.3.7-.7.3-.7-.3-.3-.7.3-.7.7-.3zm-4 0l.3.72-.3.7-.7.3-.7-.3-.3-.7.3-.7.7-.3zm-3.98 0l.3.72-.3.7-.7.3-.72-.3-.3-.7.3-.7.7-.3zm-4 0l.3.72-.3.7-.7.3-.7-.3-.3-.7.3-.7.7-.3zm-3.97 0l.3.72-.3.7-.7.3-.72-.3-.3-.7.3-.7.7-.3zm-4 0l.3.72-.3.7-.7.3-.7-.3-.3-.7.3-.7.7-.3zm-3.97 0l.3.72-.3.7-.7.3-.72-.3-.3-.7.3-.7.7-.3zm-4 0l.3.72-.3.7-.7.3-.7-.3-.3-.7.3-.7.7-.3z"/><path d="M448.4 311h-.8l-.46-2h1.25zM895.76 240l-14.26 4.64v-9.28z"/><path d="M899 240l-18.5 6v-12zm-16.5 3.26l10.03-3.26-10.03-3.26z"/><use xlink:href="#G" transform="matrix(1,0,0,1,614.8065350328462,221.06666666666666) translate(0 12.622222222222224)"/><use xlink:href="#H" transform="matrix(1,0,0,1,614.8065350328462,221.06666666666666) translate(69.0716049382716 12.622222222222224)"/><use xlink:href="#I" transform="matrix(1,0,0,1,614.8065350328462,221.06666666666666) translate(109.34876543209876 12.622222222222224)"/><use xlink:href="#J" transform="matrix(1,0,0,1,614.8065350328462,221.06666666666666) translate(131.26234567901233 12.622222222222224)"/><use xlink:href="#K" transform="matrix(1,0,0,1,614.8065350328462,221.06666666666666) translate(0 31.55555555555556)"/><use xlink:href="#L" transform="matrix(1,0,0,1,614.8065350328462,221.06666666666666) translate(21.91358024691358 31.55555555555556)"/><path d="M289.7 562.64c-.93.1-1.7.28-2.45.66l-32.87 16.2c-1.8.85-3.03 2.37-3.4 4.36l-8.16 36.47c-.38 1.7-.1 3.4.86 4.92.1.2.2.3.38.48l22.73 29.17c1.22 1.6 2.93 2.46 4.92 2.46h36.56c2 0 3.7-.85 4.93-2.46l22.74-29.17c1.23-1.6 1.7-3.5 1.23-5.5l-8.14-36.37c-.38-2-1.6-3.5-3.4-4.36l-32.88-16.2c-1.05-.47-2-.76-3.04-.66z" stroke="#000" stroke-opacity="0" stroke-width="3.83" fill="#326ce5"/><path d="M289.7 560c-1 .1-1.8.3-2.6.7l-34.7 17.1c-1.9.9-3.2 2.5-3.6 4.6l-8.6 38.5c-.4 1.8-.1 3.6.9 5.2.1.2.2.3.4.5l24 30.8c1.3 1.7 3.1 2.6 5.2 2.6h38.6c2.1 0 3.9-.9 5.2-2.6l24-30.8c1.3-1.7 1.8-3.7 1.3-5.7l-8.6-38.5c-.4-2.1-1.7-3.7-3.6-4.6l-34.7-17.1c-1.1-.5-2.1-.8-3.2-.7zm0 2.7c1.1-.1 2 .1 3 .6l33 16.2c1.7.9 2.9 2.4 3.4 4.4l8.1 36.4c.4 2 0 3.8-1.2 5.4l-22.8 29.2c-1.2 1.6-2.9 2.5-4.9 2.5h-36.6c-2 0-3.7-.9-4.9-2.5L244 625.7c-.1-.1-.2-.3-.3-.5-1-1.5-1.3-3.1-.9-4.9l8.1-36.4c.5-2 1.6-3.5 3.4-4.4l33-16.2c.8-.4 1.5-.6 2.4-.7z" stroke="#000" stroke-opacity="0" stroke-width="3.83" fill="#fff"/><path d="M281.47 645.06c0 1.13.18 1.97.52 2.52.34.54.86.8 1.56.8.5 0 .9-.12 1.22-.4.33-.27.54-.7.6-1.26l1.4.1c-.1.82-.44 1.47-1.02 1.96-.56.48-1.3.73-2.16.73-1.16 0-2.05-.36-2.65-1.1-.6-.77-.9-1.87-.9-3.32 0-1.43.3-2.52.9-3.27.6-.74 1.5-1.12 2.63-1.12.85 0 1.55.23 2.1.68.56.45.9 1.06 1.05 1.86l-1.4.1c-.08-.46-.26-.84-.55-1.12-.3-.28-.7-.4-1.24-.4-.72 0-1.25.24-1.58.73-.33.5-.5 1.34-.5 2.53zM288.28 649.36v-6.54c0-.6-.02-1.26-.05-1.98h1.3l.06 1.74h.02c.22-.73.47-1.23.76-1.5.28-.27.7-.4 1.2-.4.2 0 .38.02.56.08v1.3c-.18-.05-.42-.08-.73-.08-.56 0-1 .25-1.3.76-.3.5-.45 1.23-.45 2.17v4.46zM298.7 647.98c-.26.55-.6.94-1.02 1.18-.42.23-.95.35-1.56.35-1.05 0-1.82-.35-2.3-1.08-.5-.72-.74-1.82-.74-3.3 0-2.96 1-4.44 3.04-4.44.62 0 1.14.12 1.56.35.42.24.76.62 1 1.13h.02V637.68h1.36v9.92c0 .88.02 1.47.05 1.76h-1.3c-.02-.08-.03-.3-.05-.6l-.03-.78zm-4.18-2.9c0 1.2.15 2.05.46 2.56.3.52.8.78 1.5.78.77 0 1.33-.28 1.68-.84.35-.55.53-1.42.53-2.6 0-1.12-.2-1.95-.54-2.47-.35-.5-.9-.78-1.68-.78-.7 0-1.2.27-1.5.8-.3.53-.46 1.38-.46 2.56z" stroke="#000" stroke-opacity="0" fill="#fff"/><path d="M313.62 603.44h-3.82V592.9c0-2.93-2.3-5.3-5.16-5.3h-10.22v-3.95c0-3.66-2.9-6.6-6.4-6.6-3.54 0-6.4 2.94-6.4 6.6v3.94h-10.26c-2.8 0-5.1 2.37-5.1 5.3v10.04h3.8c3.83 0 6.94 3.16 6.94 7.1 0 3.93-3.1 7.14-6.93 7.14h-3.82v10.03c0 2.9 2.3 5.28 5.1 5.28h9.74v-3.94c0-3.93 3.1-7.15 6.92-7.15s6.9 3.2 6.9 7.14v3.94h9.72c2.85 0 5.16-2.4 5.16-5.27v-10.57h3.82c3.54 0 6.4-2.94 6.4-6.6 0-3.6-2.86-6.6-6.4-6.6z" stroke="#000" stroke-opacity="0" stroke-width="1.74" fill="#fff"/><g><use xlink:href="#M" transform="matrix(1,0,0,1,210,669) translate(35.34012345679012 12.622222222222224)"/><use xlink:href="#b" transform="matrix(1,0,0,1,210,669) translate(44.96018518518518 31.55555555555556)"/><use xlink:href="#N" transform="matrix(1,0,0,1,210,669) translate(104.5212962962963 31.55555555555556)"/></g><path d="M339.37 610c0 .55-.45 1-1 1-.56 0-1-.45-1-1s.44-1 1-1c.55 0 1 .45 1 1zm4 0c0 .55-.45 1-1 1-.56 0-1-.45-1-1s.44-1 1-1c.55 0 1 .45 1 1zm4 0c0 .55-.45 1-1 1-.56 0-1-.45-1-1s.44-1 1-1c.55 0 1 .45 1 1zm4 0c0 .55-.45 1-1 1s-1-.45-1-1 .45-1 1-1 1 .45 1 1zm4 0c0 .55-.45 1-1 1s-1-.45-1-1 .45-1 1-1 1 .45 1 1zm4 0c0 .55-.45 1-1 1s-1-.45-1-1 .45-1 1-1 1 .45 1 1zm4 0c0 .55-.45 1-1 1s-1-.45-1-1 .45-1 1-1 1 .45 1 1zm4 0c0 .55-.45 1-1 1s-1-.45-1-1 .45-1 1-1 1 .45 1 1zm4 0c0 .55-.45 1-1 1s-1-.45-1-1 .45-1 1-1 1 .45 1 1zm4 0c0 .55-.45 1-1 1s-1-.45-1-1 .45-1 1-1 1 .45 1 1zm4 0c0 .55-.44 1-1 1-.55 0-1-.45-1-1s.45-1 1-1c.56 0 1 .45 1 1zm4 0c0 .55-.44 1-1 1-.55 0-1-.45-1-1s.45-1 1-1c.56 0 1 .45 1 1zm4 0c0 .55-.44 1-1 1-.55 0-1-.45-1-1s.45-1 1-1c.56 0 1 .45 1 1zm4 0c0 .55-.44 1-1 1-.55 0-1-.45-1-1s.45-1 1-1c.56 0 1 .45 1 1zm4 0c0 .55-.44 1-1 1-.55 0-1-.45-1-1s.45-1 1-1c.56 0 1 .45 1 1zm4 0c0 .55-.44 1-1 1-.54 0-1-.45-1-1s.46-1 1-1c.56 0 1 .45 1 1zm4 0c0 .55-.44 1-1 1-.54 0-1-.45-1-1s.46-1 1-1c.56 0 1 .45 1 1zm4 0c0 .55-.44 1-1 1-.54 0-1-.45-1-1s.46-1 1-1c.56 0 1 .45 1 1zm4 0c0 .55-.44 1-1 1-.54 0-1-.45-1-1s.46-1 1-1c.56 0 1 .45 1 1zm4 0c0 .55-.44 1-1 1-.54 0-1-.45-1-1s.46-1 1-1c.56 0 1 .45 1 1zm4 0c0 .55-.44 1-1 1-.54 0-1-.45-1-1s.46-1 1-1c.56 0 1 .45 1 1zm4 0c0 .55-.44 1-1 1-.54 0-1-.45-1-1s.46-1 1-1c.56 0 1 .45 1 1zm4 0c0 .55-.43 1-1 1-.54 0-1-.45-1-1s.46-1 1-1c.57 0 1 .45 1 1zm4 0c0 .55-.43 1-1 1-.54 0-1-.45-1-1s.46-1 1-1c.57 0 1 .45 1 1zm4 0c0 .55-.43 1-1 1-.54 0-1-.45-1-1s.46-1 1-1c.57 0 1 .45 1 1zm4.02 0c0 .55-.46 1-1 1-.57 0-1-.45-1-1s.43-1 1-1c.54 0 1 .45 1 1zm4 0c0 .55-.46 1-1 1-.57 0-1-.45-1-1s.43-1 1-1c.54 0 1 .45 1 1zm4 0c0 .55-.46 1-1 1-.57 0-1-.45-1-1s.43-1 1-1c.54 0 1 .45 1 1zm4 0c0 .55-.46 1-1 1-.56 0-1-.45-1-1s.44-1 1-1c.54 0 1 .45 1 1zm4 0c0 .55-.46 1-1 1-.56 0-1-.45-1-1s.44-1 1-1c.54 0 1 .45 1 1zm4 0c0 .55-.46 1-1 1-.56 0-1-.45-1-1s.44-1 1-1c.54 0 1 .45 1 1zm4 0c0 .55-.46 1-1 1-.56 0-1-.45-1-1s.44-1 1-1c.54 0 1 .45 1 1zm4 0c0 .55-.46 1-1 1-.56 0-1-.45-1-1s.44-1 1-1c.54 0 1 .45 1 1zm4 0c0 .55-.46 1-1 1-.56 0-1-.45-1-1s.44-1 1-1c.54 0 1 .45 1 1zm4 0c0 .55-.45 1-1 1-.56 0-1-.45-1-1s.44-1 1-1c.55 0 1 .45 1 1zm4 0c0 .55-.45 1-1 1-.56 0-1-.45-1-1s.44-1 1-1c.55 0 1 .45 1 1zm4 0c0 .55-.45 1-1 1-.56 0-1-.45-1-1s.44-1 1-1c.55 0 1 .45 1 1zm4 0c0 .55-.45 1-1 1-.56 0-1-.45-1-1s.44-1 1-1c.55 0 1 .45 1 1zm4 0c0 .55-.45 1-1 1-.56 0-1-.45-1-1s.44-1 1-1c.55 0 1 .45 1 1zm4 0c0 .55-.45 1-1 1-.56 0-1-.45-1-1s.44-1 1-1c.55 0 1 .45 1 1zm4 0c0 .55-.45 1-1 1s-1-.45-1-1 .45-1 1-1 1 .45 1 1zm4 0c0 .55-.45 1-1 1s-1-.45-1-1 .45-1 1-1 1 .45 1 1zm4 0c0 .55-.45 1-1 1s-1-.45-1-1 .45-1 1-1 1 .45 1 1zm4 0c0 .55-.45 1-1 1s-1-.45-1-1 .45-1 1-1 1 .45 1 1zm4 0c0 .55-.45 1-1 1s-1-.45-1-1 .45-1 1-1 1 .45 1 1zm4 0c0 .55-.45 1-1 1s-1-.45-1-1 .45-1 1-1 1 .45 1 1zm4 0c0 .55-.45 1-1 1s-1-.45-1-1 .45-1 1-1 1 .45 1 1zm4 0c0 .55-.44 1-1 1-.55 0-1-.45-1-1s.45-1 1-1c.56 0 1 .45 1 1zm4 0c0 .55-.44 1-1 1-.55 0-1-.45-1-1s.45-1 1-1c.56 0 1 .45 1 1zm4 0c0 .55-.44 1-1 1-.55 0-1-.45-1-1s.45-1 1-1c.56 0 1 .45 1 1zm4 0c0 .55-.44 1-1 1-.55 0-1-.45-1-1s.45-1 1-1c.56 0 1 .45 1 1zm4 0c0 .55-.44 1-1 1-.55 0-1-.45-1-1s.45-1 1-1c.56 0 1 .45 1 1zm4 0c0 .55-.44 1-1 1-.54 0-1-.45-1-1s.46-1 1-1c.56 0 1 .45 1 1zm4 0c0 .55-.44 1-1 1-.54 0-1-.45-1-1s.46-1 1-1c.56 0 1 .45 1 1zm4 0c0 .55-.44 1-1 1-.54 0-1-.45-1-1s.46-1 1-1c.56 0 1 .45 1 1zm4 0c0 .55-.44 1-1 1-.54 0-1-.45-1-1s.46-1 1-1c.56 0 1 .45 1 1zm4 0c0 .55-.44 1-1 1-.54 0-1-.45-1-1s.46-1 1-1c.56 0 1 .45 1 1zm4 0c0 .55-.44 1-1 1-.54 0-1-.45-1-1s.46-1 1-1c.56 0 1 .45 1 1zm4 0c0 .55-.44 1-1 1-.54 0-1-.45-1-1s.46-1 1-1c.56 0 1 .45 1 1zm4 0c0 .55-.43 1-1 1-.54 0-1-.45-1-1s.46-1 1-1c.57 0 1 .45 1 1zm4 0c0 .55-.43 1-1 1-.54 0-1-.45-1-1s.46-1 1-1c.57 0 1 .45 1 1zm4 0c0 .55-.43 1-1 1-.54 0-1-.45-1-1s.46-1 1-1c.57 0 1 .45 1 1zm4.02 0c0 .55-.45 1-1 1-.56 0-1-.45-1-1s.44-1 1-1c.55 0 1 .45 1 1zm4 0c0 .55-.45 1-1 1-.56 0-1-.45-1-1s.44-1 1-1c.55 0 1 .45 1 1zm4 0c0 .55-.45 1-1 1s-1-.45-1-1 .45-1 1-1 1 .45 1 1zm4 0c0 .55-.45 1-1 1s-1-.45-1-1 .45-1 1-1 1 .45 1 1zm4 0c0 .55-.45 1-1 1s-1-.45-1-1 .45-1 1-1 1 .45 1 1zm4 0c0 .55-.45 1-1 1s-1-.45-1-1 .45-1 1-1 1 .45 1 1zm4 0c0 .55-.45 1-1 1s-1-.45-1-1 .45-1 1-1 1 .45 1 1zm4 0c0 .55-.45 1-1 1s-1-.45-1-1 .45-1 1-1 1 .45 1 1zm3.76-.24c0 .55-.45 1-1 1s-1-.45-1-1 .45-1 1-1 1 .45 1 1zm0-4c0 .55-.45 1-1 1s-1-.45-1-1 .45-1 1-1 1 .45 1 1zm0-4c0 .55-.45 1-1 1s-1-.45-1-1 .45-1 1-1 1 .45 1 1zm0-4c0 .55-.45 1-1 1s-1-.45-1-1 .45-1 1-1 1 .45 1 1zm0-4c0 .55-.45 1-1 1s-1-.45-1-1c0-.56.45-1 1-1s1 .44 1 1zm0-4c0 .55-.45 1-1 1s-1-.45-1-1c0-.56.45-1 1-1s1 .44 1 1zm0-4c0 .55-.45 1-1 1s-1-.45-1-1c0-.56.45-1 1-1s1 .44 1 1zm0-4c0 .55-.45 1-1 1s-1-.45-1-1c0-.56.45-1 1-1s1 .44 1 1zm0-4c0 .55-.45 1-1 1s-1-.45-1-1c0-.56.45-1 1-1s1 .44 1 1zm0-4c0 .55-.45 1-1 1s-1-.45-1-1c0-.56.45-1 1-1s1 .44 1 1zm0-4c0 .54-.45 1-1 1s-1-.46-1-1c0-.56.45-1 1-1s1 .44 1 1zm0-4c0 .54-.45 1-1 1s-1-.46-1-1c0-.56.45-1 1-1s1 .44 1 1zm0-4c0 .54-.45 1-1 1s-1-.46-1-1c0-.56.45-1 1-1s1 .44 1 1zm0-4c0 .54-.45 1-1 1s-1-.46-1-1c0-.56.45-1 1-1s1 .44 1 1zm0-4c0 .54-.45 1-1 1s-1-.46-1-1c0-.56.45-1 1-1s1 .44 1 1zm0-4c0 .54-.45 1-1 1s-1-.46-1-1c0-.56.45-1 1-1s1 .44 1 1zm0-4c0 .54-.45 1-1 1s-1-.46-1-1c0-.56.45-1 1-1s1 .44 1 1zm0-4c0 .54-.45 1-1 1s-1-.46-1-1c0-.57.45-1 1-1s1 .43 1 1zm0-4c0 .54-.45 1-1 1s-1-.46-1-1c0-.57.45-1 1-1s1 .43 1 1zm0-4.02c0 .56-.45 1-1 1s-1-.44-1-1c0-.55.45-1 1-1s1 .45 1 1zm0-4c0 .56-.45 1-1 1s-1-.44-1-1c0-.55.45-1 1-1s1 .45 1 1zm0-4c0 .56-.45 1-1 1s-1-.44-1-1c0-.55.45-1 1-1s1 .45 1 1zm0-4c0 .55-.45 1-1 1s-1-.45-1-1 .45-1 1-1 1 .45 1 1zm0-4c0 .55-.45 1-1 1s-1-.45-1-1 .45-1 1-1 1 .45 1 1zm0-4c0 .55-.45 1-1 1s-1-.45-1-1 .45-1 1-1 1 .45 1 1zm0-4c0 .55-.45 1-1 1s-1-.45-1-1 .45-1 1-1 1 .45 1 1zm0-4c0 .55-.45 1-1 1s-1-.45-1-1 .45-1 1-1 1 .45 1 1zm0-4c0 .55-.45 1-1 1s-1-.45-1-1 .45-1 1-1 1 .45 1 1zm2.27-1.74c0 .55-.45 1-1 1-.56 0-1-.45-1-1s.44-1 1-1c.55 0 1 .45 1 1zm4 0c0 .55-.45 1-1 1-.56 0-1-.45-1-1s.44-1 1-1c.55 0 1 .45 1 1zm4 0c0 .55-.45 1-1 1-.56 0-1-.45-1-1s.44-1 1-1c.55 0 1 .45 1 1zm4 0c0 .55-.45 1-1 1s-1-.45-1-1 .45-1 1-1 1 .45 1 1zm4 0c0 .55-.45 1-1 1s-1-.45-1-1 .45-1 1-1 1 .45 1 1zm4 0c0 .55-.45 1-1 1s-1-.45-1-1 .45-1 1-1 1 .45 1 1zm4 0c0 .55-.45 1-1 1s-1-.45-1-1 .45-1 1-1 1 .45 1 1zm4 0c0 .55-.45 1-1 1s-1-.45-1-1 .45-1 1-1 1 .45 1 1zm4 0c0 .55-.45 1-1 1s-1-.45-1-1 .45-1 1-1 1 .45 1 1zm4 0c0 .55-.45 1-1 1s-1-.45-1-1 .45-1 1-1 1 .45 1 1zm4 0c0 .55-.44 1-1 1-.55 0-1-.45-1-1s.45-1 1-1c.56 0 1 .45 1 1zm4 0c0 .55-.44 1-1 1-.55 0-1-.45-1-1s.45-1 1-1c.56 0 1 .45 1 1zm4 0c0 .55-.44 1-1 1-.55 0-1-.45-1-1s.45-1 1-1c.56 0 1 .45 1 1zm4 0c0 .55-.44 1-1 1-.55 0-1-.45-1-1s.45-1 1-1c.56 0 1 .45 1 1zm4 0c0 .55-.44 1-1 1-.55 0-1-.45-1-1s.45-1 1-1c.56 0 1 .45 1 1zm4 0c0 .55-.44 1-1 1-.54 0-1-.45-1-1s.46-1 1-1c.56 0 1 .45 1 1zm4 0c0 .55-.44 1-1 1-.54 0-1-.45-1-1s.46-1 1-1c.56 0 1 .45 1 1zm4 0c0 .55-.44 1-1 1-.54 0-1-.45-1-1s.46-1 1-1c.56 0 1 .45 1 1zm4 0c0 .55-.44 1-1 1-.54 0-1-.45-1-1s.46-1 1-1c.56 0 1 .45 1 1zm4 0c0 .55-.44 1-1 1-.54 0-1-.45-1-1s.46-1 1-1c.56 0 1 .45 1 1zm4 0c0 .55-.44 1-1 1-.54 0-1-.45-1-1s.46-1 1-1c.56 0 1 .45 1 1zm4 0c0 .55-.44 1-1 1-.54 0-1-.45-1-1s.46-1 1-1c.56 0 1 .45 1 1zm4 0c0 .55-.43 1-1 1-.54 0-1-.45-1-1s.46-1 1-1c.57 0 1 .45 1 1zm4 0c0 .55-.43 1-1 1-.54 0-1-.45-1-1s.46-1 1-1c.57 0 1 .45 1 1zm4 0c0 .55-.43 1-1 1-.54 0-1-.45-1-1s.46-1 1-1c.57 0 1 .45 1 1zm4.02 0c0 .55-.45 1-1 1-.56 0-1-.45-1-1s.44-1 1-1c.55 0 1 .45 1 1zm4 0c0 .55-.45 1-1 1-.56 0-1-.45-1-1s.44-1 1-1c.55 0 1 .45 1 1zm4 0c0 .55-.45 1-1 1-.56 0-1-.45-1-1s.44-1 1-1c.55 0 1 .45 1 1zm4 0c0 .55-.45 1-1 1s-1-.45-1-1 .45-1 1-1 1 .45 1 1zm4 0c0 .55-.45 1-1 1s-1-.45-1-1 .45-1 1-1 1 .45 1 1zm4 0c0 .55-.45 1-1 1s-1-.45-1-1 .45-1 1-1 1 .45 1 1zm4 0c0 .55-.45 1-1 1s-1-.45-1-1 .45-1 1-1 1 .45 1 1zm4 0c0 .55-.45 1-1 1s-1-.45-1-1 .45-1 1-1 1 .45 1 1zm4 0c0 .55-.45 1-1 1s-1-.45-1-1 .45-1 1-1 1 .45 1 1zm4 0c0 .55-.44 1-1 1-.55 0-1-.45-1-1s.45-1 1-1c.56 0 1 .45 1 1zm4 0c0 .55-.44 1-1 1-.55 0-1-.45-1-1s.45-1 1-1c.56 0 1 .45 1 1zm4 0c0 .55-.44 1-1 1-.55 0-1-.45-1-1s.45-1 1-1c.56 0 1 .45 1 1zm4 0c0 .55-.44 1-1 1-.55 0-1-.45-1-1s.45-1 1-1c.56 0 1 .45 1 1zm4 0c0 .55-.44 1-1 1-.55 0-1-.45-1-1s.45-1 1-1c.56 0 1 .45 1 1zm4 0c0 .55-.44 1-1 1-.55 0-1-.45-1-1s.45-1 1-1c.56 0 1 .45 1 1zm4 0c0 .55-.44 1-1 1-.54 0-1-.45-1-1s.46-1 1-1c.56 0 1 .45 1 1zm4 0c0 .55-.44 1-1 1-.54 0-1-.45-1-1s.46-1 1-1c.56 0 1 .45 1 1zm4 0c0 .55-.44 1-1 1-.54 0-1-.45-1-1s.46-1 1-1c.56 0 1 .45 1 1zm4 0c0 .55-.44 1-1 1-.54 0-1-.45-1-1s.46-1 1-1c.56 0 1 .45 1 1zm4 0c0 .55-.44 1-1 1-.54 0-1-.45-1-1s.46-1 1-1c.56 0 1 .45 1 1zm4 0c0 .55-.44 1-1 1-.54 0-1-.45-1-1s.46-1 1-1c.56 0 1 .45 1 1zm4 0c0 .55-.44 1-1 1-.54 0-1-.45-1-1s.46-1 1-1c.56 0 1 .45 1 1zm4 0c0 .55-.43 1-1 1-.54 0-1-.45-1-1s.46-1 1-1c.57 0 1 .45 1 1zm4 0c0 .55-.43 1-1 1-.54 0-1-.45-1-1s.46-1 1-1c.57 0 1 .45 1 1zm4.02 0c0 .55-.46 1-1 1-.57 0-1-.45-1-1s.43-1 1-1c.54 0 1 .45 1 1zm4 0c0 .55-.46 1-1 1-.57 0-1-.45-1-1s.43-1 1-1c.54 0 1 .45 1 1zm4 0c0 .55-.46 1-1 1-.57 0-1-.45-1-1s.43-1 1-1c.54 0 1 .45 1 1zm4 0c0 .55-.46 1-1 1-.56 0-1-.45-1-1s.44-1 1-1c.54 0 1 .45 1 1zm4 0c0 .55-.46 1-1 1-.56 0-1-.45-1-1s.44-1 1-1c.54 0 1 .45 1 1zm4 0c0 .55-.46 1-1 1-.56 0-1-.45-1-1s.44-1 1-1c.54 0 1 .45 1 1zm4 0c0 .55-.46 1-1 1-.56 0-1-.45-1-1s.44-1 1-1c.54 0 1 .45 1 1zm4 0c0 .55-.46 1-1 1-.56 0-1-.45-1-1s.44-1 1-1c.54 0 1 .45 1 1zm4 0c0 .55-.46 1-1 1-.56 0-1-.45-1-1s.44-1 1-1c.54 0 1 .45 1 1zm4 0c0 .55-.46 1-1 1-.56 0-1-.45-1-1s.44-1 1-1c.54 0 1 .45 1 1zm4 0c0 .55-.45 1-1 1-.56 0-1-.45-1-1s.44-1 1-1c.55 0 1 .45 1 1zm4 0c0 .55-.45 1-1 1-.56 0-1-.45-1-1s.44-1 1-1c.55 0 1 .45 1 1zm4 0c0 .55-.45 1-1 1-.56 0-1-.45-1-1s.44-1 1-1c.55 0 1 .45 1 1zm4 0c0 .55-.45 1-1 1-.56 0-1-.45-1-1s.44-1 1-1c.55 0 1 .45 1 1zm4 0c0 .55-.45 1-1 1-.56 0-1-.45-1-1s.44-1 1-1c.55 0 1 .45 1 1zm4 0c0 .55-.45 1-1 1-.56 0-1-.45-1-1s.44-1 1-1c.55 0 1 .45 1 1zm4 0c0 .55-.45 1-1 1s-1-.45-1-1 .45-1 1-1 1 .45 1 1z"/><path d="M338.4 611h-.8l-.46-2h1.25z"/><path d="M895.76 500l-14.26 4.64v-9.28z" stroke="#000" stroke-width="2"/><g><use xlink:href="#O" transform="matrix(1,0,0,1,413.106654832899,568.1333333333332) translate(0 12.622222222222224)"/><use xlink:href="#P" transform="matrix(1,0,0,1,413.106654832899,568.1333333333332) translate(0 31.55555555555556)"/></g><path d="M1011 438c0 .55-.45 1-1 1s-1-.45-1-1 .45-1 1-1 1 .45 1 1zm0-4c0 .54-.45 1-1 1s-1-.46-1-1c0-.56.45-1 1-1s1 .44 1 1zm0-4.02c0 .55-.45 1-1 1s-1-.45-1-1 .45-1 1-1 1 .45 1 1zm0-4c0 .54-.45 1-1 1s-1-.46-1-1c0-.56.45-1 1-1s1 .44 1 1zm0-4.02c0 .55-.45 1-1 1s-1-.45-1-1 .45-1 1-1 1 .45 1 1zm0-4c0 .54-.45 1-1 1s-1-.46-1-1c0-.56.45-1 1-1s1 .44 1 1zm0-4.02c0 .56-.45 1-1 1s-1-.44-1-1c0-.55.45-1 1-1s1 .45 1 1zm0-4c0 .55-.45 1-1 1s-1-.45-1-1c0-.56.45-1 1-1s1 .44 1 1zm0-4.02c0 .56-.45 1-1 1s-1-.44-1-1c0-.55.45-1 1-1s1 .45 1 1zm0-4c0 .55-.45 1-1 1s-1-.45-1-1c0-.56.45-1 1-1s1 .44 1 1zm0-4.02c0 .56-.45 1-1 1s-1-.44-1-1c0-.55.45-1 1-1s1 .45 1 1zm0-4c0 .55-.45 1-1 1s-1-.45-1-1c0-.56.45-1 1-1s1 .44 1 1zm0-4c0 .54-.45 1-1 1s-1-.46-1-1c0-.57.45-1 1-1s1 .43 1 1zm0-4.02c0 .55-.45 1-1 1s-1-.45-1-1c0-.56.45-1 1-1s1 .44 1 1zm0-4c0 .54-.45 1-1 1s-1-.46-1-1c0-.57.45-1 1-1s1 .43 1 1zm0-4.02c0 .55-.45 1-1 1s-1-.45-1-1c0-.56.45-1 1-1s1 .44 1 1zm0-4c0 .54-.45 1-1 1s-1-.46-1-1c0-.56.45-1 1-1s1 .44 1 1zm0-4.02c0 .55-.45 1-1 1s-1-.45-1-1 .45-1 1-1 1 .45 1 1zm0-4c0 .54-.45 1-1 1s-1-.46-1-1c0-.56.45-1 1-1s1 .44 1 1zm0-4.02c0 .55-.45 1-1 1s-1-.45-1-1 .45-1 1-1 1 .45 1 1zm0-4c0 .54-.45 1-1 1s-1-.46-1-1c0-.56.45-1 1-1s1 .44 1 1zm0-4.02c0 .55-.45 1-1 1s-1-.45-1-1 .45-1 1-1 1 .45 1 1zm0-4c0 .54-.45 1-1 1s-1-.46-1-1c0-.56.45-1 1-1s1 .44 1 1zm0-4.02c0 .55-.45 1-1 1s-1-.45-1-1 .45-1 1-1 1 .45 1 1zm0-4c0 .54-.45 1-1 1s-1-.46-1-1c0-.56.45-1 1-1s1 .44 1 1zm-2.24-1.78c0 .55-.45 1-1 1s-1-.45-1-1 .45-1 1-1 1 .45 1 1zm-4 0c0 .55-.46 1-1 1-.56 0-1-.45-1-1s.44-1 1-1c.54 0 1 .45 1 1zm-4.02 0c0 .55-.45 1-1 1s-1-.45-1-1 .45-1 1-1 1 .45 1 1zm-4 0c0 .55-.45 1-1 1-.56 0-1-.45-1-1s.44-1 1-1c.55 0 1 .45 1 1zm-4.02 0c0 .55-.44 1-1 1-.55 0-1-.45-1-1s.45-1 1-1c.56 0 1 .45 1 1zm-4 0c0 .55-.45 1-1 1-.56 0-1-.45-1-1s.44-1 1-1c.55 0 1 .45 1 1zm-4.02 0c0 .55-.44 1-1 1-.55 0-1-.45-1-1s.45-1 1-1c.56 0 1 .45 1 1zm-4 0c0 .55-.45 1-1 1-.56 0-1-.45-1-1s.44-1 1-1c.55 0 1 .45 1 1zm-4 0c0 .55-.46 1-1 1-.57 0-1-.45-1-1s.43-1 1-1c.54 0 1 .45 1 1zm-4.02 0c0 .55-.45 1-1 1-.56 0-1-.45-1-1s.44-1 1-1c.55 0 1 .45 1 1zm-4 0c0 .55-.46 1-1 1-.57 0-1-.45-1-1s.43-1 1-1c.54 0 1 .45 1 1zm-4.02 0c0 .55-.45 1-1 1-.56 0-1-.45-1-1s.44-1 1-1c.55 0 1 .45 1 1zm-4 0c0 .55-.46 1-1 1-.57 0-1-.45-1-1s.43-1 1-1c.54 0 1 .45 1 1zm-4.02 0c0 .55-.45 1-1 1s-1-.45-1-1 .45-1 1-1 1 .45 1 1zm-4 0c0 .55-.46 1-1 1-.56 0-1-.45-1-1s.44-1 1-1c.54 0 1 .45 1 1zm-4.02 0c0 .55-.45 1-1 1s-1-.45-1-1 .45-1 1-1 1 .45 1 1zm-4 0c0 .55-.46 1-1 1-.56 0-1-.45-1-1s.44-1 1-1c.54 0 1 .45 1 1zm-4.02 0c0 .55-.45 1-1 1s-1-.45-1-1 .45-1 1-1 1 .45 1 1zm-4 0c0 .55-.46 1-1 1-.56 0-1-.45-1-1s.44-1 1-1c.54 0 1 .45 1 1zm-4.02 0c0 .55-.45 1-1 1s-1-.45-1-1 .45-1 1-1 1 .45 1 1zm-4 0c0 .55-.46 1-1 1-.56 0-1-.45-1-1s.44-1 1-1c.54 0 1 .45 1 1zm-4.02 0c0 .55-.45 1-1 1s-1-.45-1-1 .45-1 1-1 1 .45 1 1zm-4 0c0 .55-.46 1-1 1-.56 0-1-.45-1-1s.44-1 1-1c.54 0 1 .45 1 1zm-4.02 0c0 .55-.45 1-1 1s-1-.45-1-1 .45-1 1-1 1 .45 1 1zm-4 0c0 .55-.46 1-1 1-.56 0-1-.45-1-1s.44-1 1-1c.54 0 1 .45 1 1zm-4.02 0c0 .55-.44 1-1 1-.55 0-1-.45-1-1s.45-1 1-1c.56 0 1 .45 1 1zm-4 0c0 .55-.45 1-1 1-.56 0-1-.45-1-1s.44-1 1-1c.55 0 1 .45 1 1zm-4.02 0c0 .55-.44 1-1 1-.55 0-1-.45-1-1s.45-1 1-1c.56 0 1 .45 1 1zm-4 0c0 .55-.45 1-1 1-.56 0-1-.45-1-1s.44-1 1-1c.55 0 1 .45 1 1zm-4.02 0c0 .55-.44 1-1 1-.55 0-1-.45-1-1s.45-1 1-1c.56 0 1 .45 1 1zm-4 0c0 .55-.45 1-1 1-.56 0-1-.45-1-1s.44-1 1-1c.55 0 1 .45 1 1zm-4 0c0 .55-.46 1-1 1-.57 0-1-.45-1-1s.43-1 1-1c.54 0 1 .45 1 1zm-4.02 0c0 .55-.45 1-1 1-.56 0-1-.45-1-1s.44-1 1-1c.55 0 1 .45 1 1zm-4 0c0 .55-.46 1-1 1-.57 0-1-.45-1-1s.43-1 1-1c.54 0 1 .45 1 1zm-4.02 0c0 .55-.45 1-1 1-.56 0-1-.45-1-1s.44-1 1-1c.55 0 1 .45 1 1zm-4 0c0 .55-.46 1-1 1-.56 0-1-.45-1-1s.44-1 1-1c.54 0 1 .45 1 1zm-4.02 0c0 .55-.45 1-1 1s-1-.45-1-1 .45-1 1-1 1 .45 1 1zm-4 0c0 .55-.46 1-1 1-.56 0-1-.45-1-1s.44-1 1-1c.54 0 1 .45 1 1zm-4.02 0c0 .55-.45 1-1 1s-1-.45-1-1 .45-1 1-1 1 .45 1 1zm-4 0c0 .55-.46 1-1 1-.56 0-1-.45-1-1s.44-1 1-1c.54 0 1 .45 1 1zm-4.02 0c0 .55-.45 1-1 1s-1-.45-1-1 .45-1 1-1 1 .45 1 1zm-4 0c0 .55-.46 1-1 1-.56 0-1-.45-1-1s.44-1 1-1c.54 0 1 .45 1 1zm-4.02 0c0 .55-.45 1-1 1s-1-.45-1-1 .45-1 1-1 1 .45 1 1zm-4 0c0 .55-.46 1-1 1-.56 0-1-.45-1-1s.44-1 1-1c.54 0 1 .45 1 1zm-4.02 0c0 .55-.45 1-1 1s-1-.45-1-1 .45-1 1-1 1 .45 1 1zm-4 0c0 .55-.46 1-1 1-.56 0-1-.45-1-1s.44-1 1-1c.54 0 1 .45 1 1zm-4.02 0c0 .55-.45 1-1 1s-1-.45-1-1 .45-1 1-1 1 .45 1 1zm-4 0c0 .55-.45 1-1 1-.56 0-1-.45-1-1s.44-1 1-1c.55 0 1 .45 1 1zm-4.02 0c0 .55-.44 1-1 1-.55 0-1-.45-1-1s.45-1 1-1c.56 0 1 .45 1 1zm-4 0c0 .55-.45 1-1 1-.56 0-1-.45-1-1s.44-1 1-1c.55 0 1 .45 1 1zm-4.02 0c0 .55-.44 1-1 1-.55 0-1-.45-1-1s.45-1 1-1c.56 0 1 .45 1 1zm-4 0c0 .55-.45 1-1 1-.56 0-1-.45-1-1s.44-1 1-1c.55 0 1 .45 1 1zm-4 0c0 .55-.46 1-1 1-.57 0-1-.45-1-1s.43-1 1-1c.54 0 1 .45 1 1zm-4.02 0c0 .55-.45 1-1 1-.56 0-1-.45-1-1s.44-1 1-1c.55 0 1 .45 1 1zm-4 0c0 .55-.46 1-1 1-.57 0-1-.45-1-1s.43-1 1-1c.54 0 1 .45 1 1zm-4.02 0c0 .55-.45 1-1 1-.56 0-1-.45-1-1s.44-1 1-1c.55 0 1 .45 1 1zm-4 0c0 .55-.46 1-1 1-.57 0-1-.45-1-1s.43-1 1-1c.54 0 1 .45 1 1zm-4.02 0c0 .55-.45 1-1 1s-1-.45-1-1 .45-1 1-1 1 .45 1 1zm-4 0c0 .55-.46 1-1 1-.56 0-1-.45-1-1s.44-1 1-1c.54 0 1 .45 1 1zm-4.02 0c0 .55-.45 1-1 1s-1-.45-1-1 .45-1 1-1 1 .45 1 1zm-4 0c0 .55-.46 1-1 1-.56 0-1-.45-1-1s.44-1 1-1c.54 0 1 .45 1 1zm-4.02 0c0 .55-.45 1-1 1s-1-.45-1-1 .45-1 1-1 1 .45 1 1zm-4 0c0 .55-.46 1-1 1-.56 0-1-.45-1-1s.44-1 1-1c.54 0 1 .45 1 1zm-4.02 0c0 .55-.45 1-1 1s-1-.45-1-1 .45-1 1-1 1 .45 1 1zm-4 0c0 .55-.46 1-1 1-.56 0-1-.45-1-1s.44-1 1-1c.54 0 1 .45 1 1zm-4.02 0c0 .55-.45 1-1 1s-1-.45-1-1 .45-1 1-1 1 .45 1 1zm-4 0c0 .55-.46 1-1 1-.56 0-1-.45-1-1s.44-1 1-1c.54 0 1 .45 1 1zm-4.02 0c0 .55-.45 1-1 1s-1-.45-1-1 .45-1 1-1 1 .45 1 1zm-4 0c0 .55-.46 1-1 1-.56 0-1-.45-1-1s.44-1 1-1c.54 0 1 .45 1 1zm-4.02 0c0 .55-.44 1-1 1-.55 0-1-.45-1-1s.45-1 1-1c.56 0 1 .45 1 1zm-4 0c0 .55-.45 1-1 1-.56 0-1-.45-1-1s.44-1 1-1c.55 0 1 .45 1 1zm-4.02 0c0 .55-.44 1-1 1-.55 0-1-.45-1-1s.45-1 1-1c.56 0 1 .45 1 1zm-4 0c0 .55-.45 1-1 1-.56 0-1-.45-1-1s.44-1 1-1c.55 0 1 .45 1 1zm-4.02 0c0 .55-.44 1-1 1-.55 0-1-.45-1-1s.45-1 1-1c.56 0 1 .45 1 1zm-4 0c0 .55-.45 1-1 1-.56 0-1-.45-1-1s.44-1 1-1c.55 0 1 .45 1 1zm-4 0c0 .55-.46 1-1 1-.57 0-1-.45-1-1s.43-1 1-1c.54 0 1 .45 1 1zm-4.02 0c0 .55-.45 1-1 1-.56 0-1-.45-1-1s.44-1 1-1c.55 0 1 .45 1 1zm-4 0c0 .55-.46 1-1 1-.57 0-1-.45-1-1s.43-1 1-1c.54 0 1 .45 1 1zm-4.02 0c0 .55-.45 1-1 1-.56 0-1-.45-1-1s.44-1 1-1c.55 0 1 .45 1 1zm-4 0c0 .55-.46 1-1 1-.56 0-1-.45-1-1s.44-1 1-1c.54 0 1 .45 1 1zm-4.02 0c0 .55-.45 1-1 1s-1-.45-1-1 .45-1 1-1 1 .45 1 1zm-4 0c0 .55-.46 1-1 1-.56 0-1-.45-1-1s.44-1 1-1c.54 0 1 .45 1 1zm-4.02 0c0 .55-.45 1-1 1s-1-.45-1-1 .45-1 1-1 1 .45 1 1zm-4 0c0 .55-.46 1-1 1-.56 0-1-.45-1-1s.44-1 1-1c.54 0 1 .45 1 1zm-4.02 0c0 .55-.45 1-1 1s-1-.45-1-1 .45-1 1-1 1 .45 1 1zm-4 0c0 .55-.46 1-1 1-.56 0-1-.45-1-1s.44-1 1-1c.54 0 1 .45 1 1zm-4.02 0c0 .55-.45 1-1 1s-1-.45-1-1 .45-1 1-1 1 .45 1 1zm-4 0c0 .55-.46 1-1 1-.56 0-1-.45-1-1s.44-1 1-1c.54 0 1 .45 1 1zm-4.02 0c0 .55-.45 1-1 1s-1-.45-1-1 .45-1 1-1 1 .45 1 1zm-4 0c0 .55-.46 1-1 1-.56 0-1-.45-1-1s.44-1 1-1c.54 0 1 .45 1 1zm-4.02 0c0 .55-.45 1-1 1s-1-.45-1-1 .45-1 1-1 1 .45 1 1zm-4 0c0 .55-.45 1-1 1-.56 0-1-.45-1-1s.44-1 1-1c.55 0 1 .45 1 1zm-4.02 0c0 .55-.44 1-1 1-.55 0-1-.45-1-1s.45-1 1-1c.56 0 1 .45 1 1zm-4 0c0 .55-.45 1-1 1-.56 0-1-.45-1-1s.44-1 1-1c.55 0 1 .45 1 1zm-4.02 0c0 .55-.44 1-1 1-.55 0-1-.45-1-1s.45-1 1-1c.56 0 1 .45 1 1zm-4 0c0 .55-.45 1-1 1-.56 0-1-.45-1-1s.44-1 1-1c.55 0 1 .45 1 1zm-4 0c0 .55-.46 1-1 1-.57 0-1-.45-1-1s.43-1 1-1c.54 0 1 .45 1 1zm-4.02 0c0 .55-.45 1-1 1-.56 0-1-.45-1-1s.44-1 1-1c.55 0 1 .45 1 1zm-4 0c0 .55-.46 1-1 1-.57 0-1-.45-1-1s.43-1 1-1c.54 0 1 .45 1 1zm-4.02 0c0 .55-.45 1-1 1-.56 0-1-.45-1-1s.44-1 1-1c.55 0 1 .45 1 1zm-4 0c0 .55-.46 1-1 1-.57 0-1-.45-1-1s.43-1 1-1c.54 0 1 .45 1 1zm-4.02 0c0 .55-.45 1-1 1s-1-.45-1-1 .45-1 1-1 1 .45 1 1zm-4 0c0 .55-.46 1-1 1-.56 0-1-.45-1-1s.44-1 1-1c.54 0 1 .45 1 1zm-4.02 0c0 .55-.45 1-1 1s-1-.45-1-1 .45-1 1-1 1 .45 1 1zm-4 0c0 .55-.46 1-1 1-.56 0-1-.45-1-1s.44-1 1-1c.54 0 1 .45 1 1zm-4.02 0c0 .55-.45 1-1 1s-1-.45-1-1 .45-1 1-1 1 .45 1 1zm-4 0c0 .55-.46 1-1 1-.56 0-1-.45-1-1s.44-1 1-1c.54 0 1 .45 1 1zm-4.02 0c0 .55-.45 1-1 1s-1-.45-1-1 .45-1 1-1 1 .45 1 1zm-4 0c0 .55-.46 1-1 1-.56 0-1-.45-1-1s.44-1 1-1c.54 0 1 .45 1 1zm-4.02 0c0 .55-.45 1-1 1s-1-.45-1-1 .45-1 1-1 1 .45 1 1zm-4 0c0 .55-.46 1-1 1-.56 0-1-.45-1-1s.44-1 1-1c.54 0 1 .45 1 1zm-4.02 0c0 .55-.45 1-1 1s-1-.45-1-1 .45-1 1-1 1 .45 1 1zm-4 0c0 .55-.45 1-1 1-.56 0-1-.45-1-1s.44-1 1-1c.55 0 1 .45 1 1zm-4.02 0c0 .55-.44 1-1 1-.55 0-1-.45-1-1s.45-1 1-1c.56 0 1 .45 1 1zm-4 0c0 .55-.45 1-1 1-.56 0-1-.45-1-1s.44-1 1-1c.55 0 1 .45 1 1zm-4.02 0c0 .55-.44 1-1 1-.55 0-1-.45-1-1s.45-1 1-1c.56 0 1 .45 1 1zm-4 0c0 .55-.45 1-1 1-.56 0-1-.45-1-1s.44-1 1-1c.55 0 1 .45 1 1zm-4 0c0 .55-.46 1-1 1-.57 0-1-.45-1-1s.43-1 1-1c.54 0 1 .45 1 1zm-4.02 0c0 .55-.45 1-1 1-.56 0-1-.45-1-1s.44-1 1-1c.55 0 1 .45 1 1zm-4 0c0 .55-.46 1-1 1-.57 0-1-.45-1-1s.43-1 1-1c.54 0 1 .45 1 1zm-4.02 0c0 .55-.45 1-1 1-.56 0-1-.45-1-1s.44-1 1-1c.55 0 1 .45 1 1zm-4 0c0 .55-.46 1-1 1-.57 0-1-.45-1-1s.43-1 1-1c.54 0 1 .45 1 1zm-4.02 0c0 .55-.45 1-1 1s-1-.45-1-1 .45-1 1-1 1 .45 1 1zm-4 0c0 .55-.46 1-1 1-.56 0-1-.45-1-1s.44-1 1-1c.54 0 1 .45 1 1zm-4.02 0c0 .55-.45 1-1 1s-1-.45-1-1 .45-1 1-1 1 .45 1 1zm-4 0c0 .55-.46 1-1 1-.56 0-1-.45-1-1s.44-1 1-1c.54 0 1 .45 1 1zm-4.02 0c0 .55-.45 1-1 1s-1-.45-1-1 .45-1 1-1 1 .45 1 1zm-4 0c0 .55-.46 1-1 1-.56 0-1-.45-1-1s.44-1 1-1c.54 0 1 .45 1 1zm-4.02 0c0 .55-.45 1-1 1s-1-.45-1-1 .45-1 1-1 1 .45 1 1zm-4 0c0 .55-.46 1-1 1-.56 0-1-.45-1-1s.44-1 1-1c.54 0 1 .45 1 1zm-4.02 0c0 .55-.45 1-1 1s-1-.45-1-1 .45-1 1-1 1 .45 1 1zm-4 0c0 .55-.46 1-1 1-.56 0-1-.45-1-1s.44-1 1-1c.54 0 1 .45 1 1zm-4.02 0c0 .55-.45 1-1 1s-1-.45-1-1 .45-1 1-1 1 .45 1 1z"/><path d="M1011 439h-2v-1.03h2z"/><path d="M463.24 340l14.26-4.64v9.28z" stroke="#000" stroke-width="2"/><g><use xlink:href="#Q" transform="matrix(1,0,0,1,545.0475976541486,344.00000000000006) translate(0 12.622222222222224)"/><use xlink:href="#R" transform="matrix(1,0,0,1,545.0475976541486,344.00000000000006) translate(51.62839506172839 12.622222222222224)"/><use xlink:href="#S" transform="matrix(1,0,0,1,545.0475976541486,344.00000000000006) translate(84.89320987654321 12.622222222222224)"/><use xlink:href="#T" transform="matrix(1,0,0,1,545.0475976541486,344.00000000000006) translate(0 31.55555555555556)"/><use xlink:href="#U" transform="matrix(1,0,0,1,545.0475976541486,344.00000000000006) translate(4.382716049382716 31.55555555555556)"/><use xlink:href="#V" transform="matrix(1,0,0,1,545.0475976541486,344.00000000000006) translate(36.72716049382716 31.55555555555556)"/><use xlink:href="#W" transform="matrix(1,0,0,1,545.0475976541486,344.00000000000006) translate(196.17037037037034 31.55555555555556)"/><use xlink:href="#X" transform="matrix(1,0,0,1,545.0475976541486,344.00000000000006) translate(226.84938271604935 31.55555555555556)"/><use xlink:href="#T" transform="matrix(1,0,0,1,545.0475976541486,344.00000000000006) translate(0 50.488888888888894)"/><use xlink:href="#Y" transform="matrix(1,0,0,1,545.0475976541486,344.00000000000006) translate(4.382716049382716 50.488888888888894)"/><use xlink:href="#Z" transform="matrix(1,0,0,1,545.0475976541486,344.00000000000006) translate(16.610493827160493 50.488888888888894)"/><use xlink:href="#aa" transform="matrix(1,0,0,1,545.0475976541486,344.00000000000006) translate(37.647530864197535 50.488888888888894)"/></g><path d="M839.66 63.17c-1.14.1-2.05.34-2.96.8L797.26 83.4c-2.16 1.02-3.64 2.84-4.1 5.23l-9.77 43.76c-.47 2.04-.13 4.08 1 5.9.13.23.24.34.47.57l27.28 35c1.48 1.94 3.52 2.97 5.9 2.97h43.9c2.38 0 4.42-1.03 5.9-2.96l27.28-35c1.48-1.94 2.05-4.2 1.48-6.6l-9.77-43.65c-.45-2.4-1.93-4.2-4.1-5.23L843.3 63.96c-1.25-.57-2.4-.9-3.64-.8z" stroke="#000" stroke-opacity="0" stroke-width="3.83" fill="#326ce5"/><path d="M839.64 60c-1.2.12-2.16.36-3.12.84l-41.64 20.52c-2.28 1.08-3.84 3-4.32 5.52l-10.32 46.2c-.48 2.16-.12 4.32 1.08 6.24.12.24.24.36.48.6l28.8 36.96c1.56 2.04 3.72 3.12 6.24 3.12h46.32c2.52 0 4.68-1.08 6.24-3.12l28.8-36.96c1.56-2.04 2.16-4.44 1.56-6.84l-10.32-46.2c-.48-2.52-2.04-4.44-4.32-5.52l-41.64-20.52c-1.32-.6-2.52-.96-3.84-.84zm0 3.24c1.32-.12 2.4.12 3.6.72l39.6 19.44c2.04 1.08 3.48 2.88 4.08 5.28l9.72 43.68c.48 2.4 0 4.56-1.44 6.48l-27.36 35.04c-1.44 1.92-3.48 3-5.88 3h-43.92c-2.4 0-4.44-1.08-5.88-3l-27.36-35.04c-.12-.12-.24-.36-.36-.6-1.2-1.8-1.56-3.72-1.08-5.88l9.72-43.68c.6-2.4 1.92-4.2 4.08-5.28l39.6-19.44c.96-.48 1.8-.72 2.88-.84z" stroke="#000" stroke-opacity="0" stroke-width="3.83" fill="#fff"/><path d="M834.02 162.07c0 3.56-1.2 5.35-3.64 5.35-1.53 0-2.56-.6-3.08-1.8h-.05c.03.07.04.6.04 1.63v4h-1.66v-12.17c0-1.05-.02-1.74-.06-2.1h1.6l.02.3.05.7.02.66h.03c.3-.62.7-1.08 1.17-1.37.48-.3 1.1-.45 1.9-.45 1.23 0 2.14.42 2.74 1.27.62.83.92 2.15.92 3.97zm-1.73.03c0-1.42-.2-2.44-.56-3.05-.38-.62-.97-.92-1.78-.92-.66 0-1.17.15-1.54.43-.37.28-.65.73-.85 1.33-.2.58-.28 1.38-.28 2.33 0 1.35.2 2.33.6 2.97.43.63 1.1.95 2.04.95.82 0 1.4-.3 1.78-.92.38-.62.57-1.66.57-3.13zM844.48 162.1c0 1.8-.4 3.13-1.15 4-.76.88-1.88 1.32-3.33 1.32-1.45 0-2.54-.46-3.28-1.36-.74-.92-1.1-2.24-1.1-3.96 0-3.53 1.47-5.3 4.44-5.3 1.52 0 2.63.45 3.34 1.3.72.87 1.08 2.2 1.08 4zm-1.73 0c0-1.4-.22-2.43-.62-3.07-.4-.64-1.08-.95-2.04-.95-.98 0-1.68.3-2.1.97-.44.65-.66 1.67-.66 3.05 0 1.35.2 2.37.64 3.05.42.68 1.1 1 2 1 1 0 1.7-.3 2.12-.97.43-.66.65-1.7.65-3.08zM852.8 165.58c-.3.66-.7 1.12-1.22 1.4-.5.3-1.13.43-1.87.43-1.24 0-2.17-.43-2.76-1.3-.58-.86-.88-2.18-.88-3.94 0-3.57 1.22-5.35 3.65-5.35.76 0 1.38.16 1.9.44.5.28.9.74 1.2 1.35v-5.4h1.64v11.9c0 1.08.03 1.8.06 2.13h-1.58l-.06-.7c0-.37-.03-.68-.03-.95zm-5-3.48c0 1.44.18 2.46.54 3.07.37.62.96.94 1.8.94.93 0 1.6-.33 2.02-1 .43-.67.64-1.7.64-3.1 0-1.36-.2-2.36-.64-2.98-.42-.63-1.1-.96-2-.96-.84 0-1.44.33-1.82.97-.36.63-.55 1.65-.55 3.07z" stroke="#000" stroke-opacity="0" fill="#fff"/><path d="M815.92 100.2L840 93l24.1 7.2-24.1 7.2zM815.92 102.95v26.4l22.43 12.83.12-32.32zM864.08 102.95v26.4l-22.44 12.83-.1-32.32z" stroke="#000" stroke-opacity="0" stroke-width="3.77" fill="#fff"/><path d="M1779.66 613.17c-1.14.1-2.05.34-2.96.8l-39.44 19.43c-2.16 1.02-3.64 2.84-4.1 5.23l-9.77 43.76c-.47 2.04-.13 4.08 1 5.9.13.23.24.34.47.57l27.28 35c1.48 1.94 3.52 2.97 5.9 2.97h43.9c2.38 0 4.42-1.03 5.9-2.96l27.28-35c1.48-1.94 2.05-4.2 1.48-6.6l-9.77-43.65c-.45-2.4-1.93-4.2-4.1-5.23l-39.43-19.44c-1.25-.57-2.4-.9-3.64-.8z" stroke="#000" stroke-opacity="0" stroke-width="3.83" fill="#326ce5"/><path d="M1779.64 610c-1.2.12-2.16.36-3.12.84l-41.64 20.52c-2.28 1.08-3.84 3-4.32 5.52l-10.32 46.2c-.48 2.16-.12 4.32 1.08 6.24.12.24.24.36.48.6l28.8 36.96c1.56 2.04 3.72 3.12 6.24 3.12h46.32c2.52 0 4.68-1.08 6.24-3.12l28.8-36.96c1.56-2.04 2.16-4.44 1.56-6.84l-10.32-46.2c-.48-2.52-2.04-4.44-4.32-5.52l-41.64-20.52c-1.32-.6-2.52-.96-3.84-.84zm0 3.24c1.32-.12 2.4.12 3.6.72l39.6 19.44c2.04 1.08 3.48 2.88 4.08 5.28l9.72 43.68c.48 2.4 0 4.56-1.44 6.48l-27.36 35.04c-1.44 1.92-3.48 3-5.88 3h-43.92c-2.4 0-4.44-1.08-5.88-3l-27.36-35.04c-.12-.12-.24-.36-.36-.6-1.2-1.8-1.56-3.72-1.08-5.88l9.72-43.68c.6-2.4 1.92-4.2 4.08-5.28l39.6-19.44c.96-.48 1.8-.72 2.88-.84z" stroke="#000" stroke-opacity="0" stroke-width="3.83" fill="#fff"/><path d="M1774.02 712.07c0 3.56-1.2 5.35-3.64 5.35-1.53 0-2.56-.6-3.08-1.8h-.05c.03.07.04.6.04 1.63v4h-1.66v-12.17c0-1.05-.02-1.74-.06-2.1h1.6l.02.3.05.7.02.66h.03c.3-.62.7-1.08 1.17-1.37.48-.3 1.1-.45 1.9-.45 1.23 0 2.14.42 2.74 1.27.62.83.92 2.15.92 3.97zm-1.73.03c0-1.42-.2-2.44-.56-3.05-.38-.62-.97-.92-1.78-.92-.66 0-1.17.15-1.54.43-.37.28-.65.73-.85 1.33-.2.58-.28 1.38-.28 2.33 0 1.35.2 2.33.6 2.97.43.63 1.1.95 2.04.95.82 0 1.4-.3 1.78-.92.38-.62.57-1.66.57-3.13zM1784.48 712.1c0 1.8-.4 3.13-1.15 4-.76.88-1.88 1.32-3.33 1.32-1.45 0-2.54-.46-3.28-1.36-.74-.92-1.1-2.24-1.1-3.96 0-3.53 1.47-5.3 4.44-5.3 1.52 0 2.63.45 3.34 1.3.72.87 1.08 2.2 1.08 4zm-1.73 0c0-1.4-.22-2.43-.62-3.07-.4-.64-1.08-.95-2.04-.95-.98 0-1.68.3-2.1.97-.44.65-.66 1.67-.66 3.05 0 1.35.2 2.37.64 3.05.42.68 1.1 1 2 1 1 0 1.7-.3 2.12-.97.43-.66.65-1.7.65-3.08zM1792.8 715.58c-.3.66-.7 1.12-1.22 1.4-.5.3-1.13.43-1.87.43-1.24 0-2.17-.43-2.76-1.3-.58-.86-.88-2.18-.88-3.94 0-3.57 1.22-5.35 3.65-5.35.76 0 1.38.16 1.9.44.5.28.9.74 1.2 1.35v-5.4h1.64v11.9c0 1.08.03 1.8.06 2.13h-1.58l-.06-.7c0-.37-.03-.68-.03-.95zm-5-3.48c0 1.44.18 2.46.54 3.07.37.62.96.94 1.8.94.93 0 1.6-.33 2.02-1 .43-.67.64-1.7.64-3.1 0-1.36-.2-2.36-.64-2.98-.42-.63-1.1-.96-2-.96-.84 0-1.44.33-1.82.97-.36.63-.55 1.65-.55 3.07z" stroke="#000" stroke-opacity="0" fill="#fff"/><path d="M1755.92 650.2L1780 643l24.1 7.2-24.1 7.2zM1755.92 652.95v26.4l22.43 12.83.12-32.32zM1804.08 652.95v26.4l-22.44 12.83-.1-32.32z" stroke="#000" stroke-opacity="0" stroke-width="3.77" fill="#fff"/><g><use xlink:href="#ab" transform="matrix(1,0,0,1,1690,739) translate(50.025 14.4)"/><use xlink:href="#ac" transform="matrix(1,0,0,1,1690,739) translate(117.975 14.4)"/></g><path d="M1300 250h200v40h-200z" stroke="#000" stroke-opacity="0" stroke-width="2" fill="#fff" fill-opacity="0"/><g><use xlink:href="#ad" transform="matrix(1,0,0,1,1305,255) translate(47.025 18.15)"/><use xlink:href="#ae" transform="matrix(1,0,0,1,1305,255) translate(86.975 18.15)"/></g><defs><path d="M30 0v-248h187v28H63v79h144v27H63v87h162V0H30" id="af"/><path d="M117-194c89-4 53 116 60 194h-32v-121c0-31-8-49-39-48C34-167 62-67 57 0H25l-1-190h30c1 10-1 24 2 32 11-22 29-35 61-36" id="ag"/><path d="M108 0H70L1-190h34L89-25l56-165h34" id="ah"/><path d="M100-194c62-1 85 37 85 99 1 63-27 99-86 99S16-35 15-95c0-66 28-99 85-99zM99-20c44 1 53-31 53-75 0-43-8-75-51-75s-53 32-53 75 10 74 51 75" id="ai"/><path d="M179-190L93 31C79 59 56 82 12 73V49c39 6 53-20 64-50L1-190h34L92-34l54-156h33" id="aj"/><path d="M212-179c-10-28-35-45-73-45-59 0-87 40-87 99 0 60 29 101 89 101 43 0 62-24 78-52l27 14C228-24 195 4 139 4 59 4 22-46 18-125c-6-104 99-153 187-111 19 9 31 26 39 46" id="ak"/><path d="M101-234c-31-9-42 10-38 44h38v23H63V0H32v-167H5v-23h27c-7-52 17-82 69-68v24" id="al"/><path d="M24-231v-30h32v30H24zM24 0v-190h32V0H24" id="am"/><path d="M177-190C167-65 218 103 67 71c-23-6-38-20-44-43l32-5c15 47 100 32 89-28v-30C133-14 115 1 83 1 29 1 15-40 15-95c0-56 16-97 71-98 29-1 48 16 59 35 1-10 0-23 2-32h30zM94-22c36 0 50-32 50-73 0-42-14-75-50-75-39 0-46 34-46 75s6 73 46 73" id="an"/><path d="M233-177c-1 41-23 64-60 70L243 0h-38l-65-103H63V0H30v-248c88 3 205-21 203 71zM63-129c60-2 137 13 137-47 0-61-80-42-137-45v92" id="ao"/><path d="M100-194c63 0 86 42 84 106H49c0 40 14 67 53 68 26 1 43-12 49-29l28 8c-11 28-37 45-77 45C44 4 14-33 15-96c1-61 26-98 85-98zm52 81c6-60-76-77-97-28-3 7-6 17-6 28h103" id="ap"/><path d="M135-143c-3-34-86-38-87 0 15 53 115 12 119 90S17 21 10-45l28-5c4 36 97 45 98 0-10-56-113-15-118-90-4-57 82-63 122-42 12 7 21 19 24 35" id="aq"/><g id="a"><use transform="matrix(0.043827160493827164,0,0,0.043827160493827164,0,0)" xlink:href="#af"/><use transform="matrix(0.043827160493827164,0,0,0.043827160493827164,10.518518518518519,0)" xlink:href="#ag"/><use transform="matrix(0.043827160493827164,0,0,0.043827160493827164,19.28395061728395,0)" xlink:href="#ah"/><use transform="matrix(0.043827160493827164,0,0,0.043827160493827164,27.172839506172835,0)" xlink:href="#ai"/><use transform="matrix(0.043827160493827164,0,0,0.043827160493827164,35.93827160493827,0)" xlink:href="#aj"/><use transform="matrix(0.043827160493827164,0,0,0.043827160493827164,43.827160493827165,0)" xlink:href="#ak"/><use transform="matrix(0.043827160493827164,0,0,0.043827160493827164,55.1783950617284,0)" xlink:href="#ai"/><use transform="matrix(0.043827160493827164,0,0,0.043827160493827164,63.94382716049383,0)" xlink:href="#ag"/><use transform="matrix(0.043827160493827164,0,0,0.043827160493827164,72.70925925925927,0)" xlink:href="#al"/><use transform="matrix(0.043827160493827164,0,0,0.043827160493827164,77.09197530864199,0)" xlink:href="#am"/><use transform="matrix(0.043827160493827164,0,0,0.043827160493827164,80.55432098765434,0)" xlink:href="#an"/><use transform="matrix(0.043827160493827164,0,0,0.043827160493827164,89.31975308641977,0)" xlink:href="#ao"/><use transform="matrix(0.043827160493827164,0,0,0.043827160493827164,100.670987654321,0)" xlink:href="#ap"/><use transform="matrix(0.043827160493827164,0,0,0.043827160493827164,109.43641975308643,0)" xlink:href="#ah"/><use transform="matrix(0.043827160493827164,0,0,0.043827160493827164,117.32530864197531,0)" xlink:href="#am"/><use transform="matrix(0.043827160493827164,0,0,0.043827160493827164,120.78765432098766,0)" xlink:href="#aq"/><use transform="matrix(0.043827160493827164,0,0,0.043827160493827164,128.67654320987654,0)" xlink:href="#am"/><use transform="matrix(0.043827160493827164,0,0,0.043827160493827164,132.13888888888889,0)" xlink:href="#ai"/><use transform="matrix(0.043827160493827164,0,0,0.043827160493827164,140.90432098765433,0)" xlink:href="#ag"/></g><path d="M85-194c31 0 48 13 60 33l-1-100h32l1 261h-30c-2-10 0-23-3-31C134-8 116 4 85 4 32 4 16-35 15-94c0-66 23-100 70-100zm9 24c-40 0-46 34-46 75 0 40 6 74 45 74 42 0 51-32 51-76 0-42-9-74-50-73" id="ar"/><path d="M33 0v-248h34V0H33" id="as"/><path d="M30-248c118-7 216 8 213 122C240-48 200 0 122 0H30v-248zM63-27c89 8 146-16 146-99s-60-101-146-95v194" id="at"/><path d="M33-154v-36h34v36H33zM33 0v-36h34V0H33" id="au"/><g id="b"><use transform="matrix(0.043827160493827164,0,0,0.043827160493827164,0,0)" xlink:href="#ag"/><use transform="matrix(0.043827160493827164,0,0,0.043827160493827164,8.765432098765432,0)" xlink:href="#ai"/><use transform="matrix(0.043827160493827164,0,0,0.043827160493827164,17.530864197530864,0)" xlink:href="#ar"/><use transform="matrix(0.043827160493827164,0,0,0.043827160493827164,26.296296296296298,0)" xlink:href="#ap"/><use transform="matrix(0.043827160493827164,0,0,0.043827160493827164,35.06172839506173,0)" xlink:href="#as"/><use transform="matrix(0.043827160493827164,0,0,0.043827160493827164,39.44444444444444,0)" xlink:href="#at"/><use transform="matrix(0.043827160493827164,0,0,0.043827160493827164,50.79567901234568,0)" xlink:href="#au"/></g><path d="M195 0l-74-108L45 0H8l94-129-87-119h37l69 98 67-98h37l-84 118L233 0h-38" id="av"/><use transform="matrix(0.043827160493827164,0,0,0.043827160493827164,0,0)" xlink:href="#av" id="c"/><path d="M115-194c55 1 70 41 70 98S169 2 115 4C84 4 66-9 55-30l1 105H24l-1-265h31l2 30c10-21 28-34 59-34zm-8 174c40 0 45-34 45-75s-6-73-45-74c-42 0-51 32-51 76 0 43 10 73 51 73" id="aw"/><path d="M84 4C-5 8 30-112 23-190h32v120c0 31 7 50 39 49 72-2 45-101 50-169h31l1 190h-30c-1-10 1-25-2-33-11 22-28 36-60 37" id="ax"/><path d="M115-194c53 0 69 39 70 98 0 66-23 100-70 100C84 3 66-7 56-30L54 0H23l1-261h32v101c10-23 28-34 59-34zm-8 174c40 0 45-34 45-75 0-40-5-75-45-74-42 0-51 32-51 76 0 43 10 73 51 73" id="ay"/><path d="M24 0v-261h32V0H24" id="az"/><path d="M106-169C34-169 62-67 57 0H25v-261h32l-1 103c12-21 28-36 61-36 89 0 53 116 60 194h-32v-121c2-32-8-49-39-48" id="aA"/><g id="d"><use transform="matrix(0.043827160493827164,0,0,0.043827160493827164,0,0)" xlink:href="#aw"/><use transform="matrix(0.043827160493827164,0,0,0.043827160493827164,8.765432098765432,0)" xlink:href="#ax"/><use transform="matrix(0.043827160493827164,0,0,0.043827160493827164,17.530864197530864,0)" xlink:href="#ay"/><use transform="matrix(0.043827160493827164,0,0,0.043827160493827164,26.296296296296298,0)" xlink:href="#az"/><use transform="matrix(0.043827160493827164,0,0,0.043827160493827164,29.758641975308645,0)" xlink:href="#am"/><use transform="matrix(0.043827160493827164,0,0,0.043827160493827164,33.220987654320986,0)" xlink:href="#aq"/><use transform="matrix(0.043827160493827164,0,0,0.043827160493827164,41.10987654320988,0)" xlink:href="#aA"/><use transform="matrix(0.043827160493827164,0,0,0.043827160493827164,49.87530864197531,0)" xlink:href="#ap"/><use transform="matrix(0.043827160493827164,0,0,0.043827160493827164,58.64074074074073,0)" xlink:href="#ar"/><use transform="matrix(0.043827160493827164,0,0,0.043827160493827164,67.40617283950617,0)" xlink:href="#au"/></g><path d="M141-36C126-15 110 5 73 4 37 3 15-17 15-53c-1-64 63-63 125-63 3-35-9-54-41-54-24 1-41 7-42 31l-33-3c5-37 33-52 76-52 45 0 72 20 72 64v82c-1 20 7 32 28 27v20c-31 9-61-2-59-35zM48-53c0 20 12 33 32 33 41-3 63-29 60-74-43 2-92-5-92 41" id="aB"/><g id="e"><use transform="matrix(0.043827160493827164,0,0,0.043827160493827164,0,0)" xlink:href="#al"/><use transform="matrix(0.043827160493827164,0,0,0.043827160493827164,4.382716049382716,0)" xlink:href="#aB"/><use transform="matrix(0.043827160493827164,0,0,0.043827160493827164,13.148148148148149,0)" xlink:href="#az"/><use transform="matrix(0.043827160493827164,0,0,0.043827160493827164,16.610493827160496,0)" xlink:href="#aq"/><use transform="matrix(0.043827160493827164,0,0,0.043827160493827164,24.499382716049386,0)" xlink:href="#ap"/></g><path d="M185-189c-5-48-123-54-124 2 14 75 158 14 163 119 3 78-121 87-175 55-17-10-28-26-33-46l33-7c5 56 141 63 141-1 0-78-155-14-162-118-5-82 145-84 179-34 5 7 8 16 11 25" id="aC"/><path d="M96-169c-40 0-48 33-48 73s9 75 48 75c24 0 41-14 43-38l32 2c-6 37-31 61-74 61-59 0-76-41-82-99-10-93 101-131 147-64 4 7 5 14 7 22l-32 3c-4-21-16-35-41-35" id="aD"/><path d="M114-163C36-179 61-72 57 0H25l-1-190h30c1 12-1 29 2 39 6-27 23-49 58-41v29" id="aE"/><path d="M59-47c-2 24 18 29 38 22v24C64 9 27 4 27-40v-127H5v-23h24l9-43h21v43h35v23H59v120" id="aF"/><g id="f"><use transform="matrix(0.05,0,0,0.05,0,0)" xlink:href="#aC"/><use transform="matrix(0.05,0,0,0.05,12,0)" xlink:href="#ap"/><use transform="matrix(0.05,0,0,0.05,22,0)" xlink:href="#aD"/><use transform="matrix(0.05,0,0,0.05,31,0)" xlink:href="#aE"/><use transform="matrix(0.05,0,0,0.05,36.95,0)" xlink:href="#ap"/><use transform="matrix(0.05,0,0,0.05,46.95,0)" xlink:href="#aF"/><use transform="matrix(0.05,0,0,0.05,51.95,0)" xlink:href="#aq"/></g><g id="g"><use transform="matrix(0.05,0,0,0.05,0,0)" xlink:href="#aD"/><use transform="matrix(0.05,0,0,0.05,9,0)" xlink:href="#ai"/><use transform="matrix(0.05,0,0,0.05,19,0)" xlink:href="#ag"/><use transform="matrix(0.05,0,0,0.05,29,0)" xlink:href="#aF"/><use transform="matrix(0.05,0,0,0.05,34,0)" xlink:href="#aE"/><use transform="matrix(0.05,0,0,0.05,39.95,0)" xlink:href="#ai"/><use transform="matrix(0.05,0,0,0.05,49.95,0)" xlink:href="#az"/><use transform="matrix(0.05,0,0,0.05,53.900000000000006,0)" xlink:href="#az"/><use transform="matrix(0.05,0,0,0.05,57.85,0)" xlink:href="#ap"/><use transform="matrix(0.05,0,0,0.05,67.85000000000001,0)" xlink:href="#aE"/></g><g id="h"><use transform="matrix(0.05,0,0,0.05,0,0)" xlink:href="#af"/><use transform="matrix(0.05,0,0,0.05,12,0)" xlink:href="#ag"/><use transform="matrix(0.05,0,0,0.05,22,0)" xlink:href="#ah"/><use transform="matrix(0.05,0,0,0.05,31,0)" xlink:href="#ai"/><use transform="matrix(0.05,0,0,0.05,41,0)" xlink:href="#aj"/><use transform="matrix(0.05,0,0,0.05,50,0)" xlink:href="#ak"/><use transform="matrix(0.05,0,0,0.05,62.95,0)" xlink:href="#ai"/><use transform="matrix(0.05,0,0,0.05,72.95,0)" xlink:href="#ag"/><use transform="matrix(0.05,0,0,0.05,82.95,0)" xlink:href="#al"/><use transform="matrix(0.05,0,0,0.05,87.95,0)" xlink:href="#am"/><use transform="matrix(0.05,0,0,0.05,91.9,0)" xlink:href="#an"/></g><g id="i"><use transform="matrix(0.05,0,0,0.05,0,0)" xlink:href="#af"/><use transform="matrix(0.05,0,0,0.05,12,0)" xlink:href="#ag"/><use transform="matrix(0.05,0,0,0.05,22,0)" xlink:href="#ah"/><use transform="matrix(0.05,0,0,0.05,31,0)" xlink:href="#ai"/><use transform="matrix(0.05,0,0,0.05,41,0)" xlink:href="#aj"/><use transform="matrix(0.05,0,0,0.05,50,0)" xlink:href="#ak"/><use transform="matrix(0.05,0,0,0.05,62.95,0)" xlink:href="#ai"/><use transform="matrix(0.05,0,0,0.05,72.95,0)" xlink:href="#ag"/><use transform="matrix(0.05,0,0,0.05,82.95,0)" xlink:href="#al"/><use transform="matrix(0.05,0,0,0.05,87.95,0)" xlink:href="#am"/><use transform="matrix(0.05,0,0,0.05,91.9,0)" xlink:href="#an"/><use transform="matrix(0.05,0,0,0.05,101.9,0)" xlink:href="#ao"/><use transform="matrix(0.05,0,0,0.05,114.85000000000001,0)" xlink:href="#ap"/><use transform="matrix(0.05,0,0,0.05,124.85000000000001,0)" xlink:href="#ah"/><use transform="matrix(0.05,0,0,0.05,133.85000000000002,0)" xlink:href="#am"/><use transform="matrix(0.05,0,0,0.05,137.8,0)" xlink:href="#aq"/><use transform="matrix(0.05,0,0,0.05,146.8,0)" xlink:href="#am"/><use transform="matrix(0.05,0,0,0.05,150.75,0)" xlink:href="#ai"/><use transform="matrix(0.05,0,0,0.05,160.75,0)" xlink:href="#ag"/></g><path d="M30-248c87 1 191-15 191 75 0 78-77 80-158 76V0H30v-248zm33 125c57 0 124 11 124-50 0-59-68-47-124-48v98" id="aG"/><g id="j"><use transform="matrix(0.05,0,0,0.05,0,0)" xlink:href="#an"/><use transform="matrix(0.05,0,0,0.05,10,0)" xlink:href="#ao"/><use transform="matrix(0.05,0,0,0.05,22.950000000000003,0)" xlink:href="#aG"/><use transform="matrix(0.05,0,0,0.05,34.95,0)" xlink:href="#ak"/></g><g id="k"><use transform="matrix(0.05,0,0,0.05,0,0)" xlink:href="#aq"/><use transform="matrix(0.05,0,0,0.05,9,0)" xlink:href="#ap"/><use transform="matrix(0.05,0,0,0.05,19,0)" xlink:href="#aE"/><use transform="matrix(0.05,0,0,0.05,24.95,0)" xlink:href="#ah"/><use transform="matrix(0.05,0,0,0.05,33.95,0)" xlink:href="#ap"/><use transform="matrix(0.05,0,0,0.05,43.95,0)" xlink:href="#aE"/></g><g id="l"><use transform="matrix(0.05,0,0,0.05,0,0)" xlink:href="#aq"/><use transform="matrix(0.05,0,0,0.05,9,0)" xlink:href="#ag"/><use transform="matrix(0.05,0,0,0.05,19,0)" xlink:href="#aB"/><use transform="matrix(0.05,0,0,0.05,29,0)" xlink:href="#aw"/><use transform="matrix(0.05,0,0,0.05,39,0)" xlink:href="#aq"/><use transform="matrix(0.05,0,0,0.05,48,0)" xlink:href="#aA"/><use transform="matrix(0.05,0,0,0.05,58,0)" xlink:href="#ai"/><use transform="matrix(0.05,0,0,0.05,68,0)" xlink:href="#aF"/></g><g id="m"><use transform="matrix(0.05,0,0,0.05,0,0)" xlink:href="#aD"/><use transform="matrix(0.05,0,0,0.05,9,0)" xlink:href="#aB"/><use transform="matrix(0.05,0,0,0.05,19,0)" xlink:href="#aD"/><use transform="matrix(0.05,0,0,0.05,28,0)" xlink:href="#aA"/><use transform="matrix(0.05,0,0,0.05,38,0)" xlink:href="#ap"/></g><g id="n"><use transform="matrix(0.043827160493827164,0,0,0.043827160493827164,0,0)" xlink:href="#ax"/><use transform="matrix(0.043827160493827164,0,0,0.043827160493827164,8.765432098765432,0)" xlink:href="#aw"/><use transform="matrix(0.043827160493827164,0,0,0.043827160493827164,17.530864197530864,0)" xlink:href="#ar"/><use transform="matrix(0.043827160493827164,0,0,0.043827160493827164,26.296296296296298,0)" xlink:href="#aB"/><use transform="matrix(0.043827160493827164,0,0,0.043827160493827164,35.06172839506173,0)" xlink:href="#aF"/><use transform="matrix(0.043827160493827164,0,0,0.043827160493827164,39.44444444444444,0)" xlink:href="#ap"/><use transform="matrix(0.043827160493827164,0,0,0.043827160493827164,48.20987654320987,0)" xlink:href="#aq"/></g><g id="o"><use transform="matrix(0.043827160493827164,0,0,0.043827160493827164,0,0)" xlink:href="#aq"/><use transform="matrix(0.043827160493827164,0,0,0.043827160493827164,7.888888888888889,0)" xlink:href="#ag"/><use transform="matrix(0.043827160493827164,0,0,0.043827160493827164,16.654320987654323,0)" xlink:href="#aB"/><use transform="matrix(0.043827160493827164,0,0,0.043827160493827164,25.419753086419753,0)" xlink:href="#aw"/><use transform="matrix(0.043827160493827164,0,0,0.043827160493827164,34.18518518518518,0)" xlink:href="#aq"/><use transform="matrix(0.043827160493827164,0,0,0.043827160493827164,42.074074074074076,0)" xlink:href="#aA"/><use transform="matrix(0.043827160493827164,0,0,0.043827160493827164,50.839506172839506,0)" xlink:href="#ai"/><use transform="matrix(0.043827160493827164,0,0,0.043827160493827164,59.60493827160493,0)" xlink:href="#aF"/></g><g id="p"><use transform="matrix(0.043827160493827164,0,0,0.043827160493827164,0,0)" xlink:href="#aD"/><use transform="matrix(0.043827160493827164,0,0,0.043827160493827164,7.888888888888889,0)" xlink:href="#aB"/><use transform="matrix(0.043827160493827164,0,0,0.043827160493827164,16.654320987654323,0)" xlink:href="#aD"/><use transform="matrix(0.043827160493827164,0,0,0.043827160493827164,24.543209876543212,0)" xlink:href="#aA"/><use transform="matrix(0.043827160493827164,0,0,0.043827160493827164,33.308641975308646,0)" xlink:href="#ap"/></g><path d="M206 0h-36l-40-164L89 0H53L-1-190h32L70-26l43-164h34l41 164 42-164h31" id="aH"/><g id="q"><use transform="matrix(0.043827160493827164,0,0,0.043827160493827164,0,0)" xlink:href="#ag"/><use transform="matrix(0.043827160493827164,0,0,0.043827160493827164,8.765432098765432,0)" xlink:href="#ap"/><use transform="matrix(0.043827160493827164,0,0,0.043827160493827164,17.530864197530864,0)" xlink:href="#aH"/></g><g id="r"><use transform="matrix(0.043827160493827164,0,0,0.043827160493827164,0,0)" xlink:href="#aE"/><use transform="matrix(0.043827160493827164,0,0,0.043827160493827164,5.215432098765432,0)" xlink:href="#ap"/><use transform="matrix(0.043827160493827164,0,0,0.043827160493827164,13.980864197530863,0)" xlink:href="#aq"/><use transform="matrix(0.043827160493827164,0,0,0.043827160493827164,21.869753086419752,0)" xlink:href="#ai"/><use transform="matrix(0.043827160493827164,0,0,0.043827160493827164,30.635185185185186,0)" xlink:href="#ax"/><use transform="matrix(0.043827160493827164,0,0,0.043827160493827164,39.400617283950616,0)" xlink:href="#aE"/><use transform="matrix(0.043827160493827164,0,0,0.043827160493827164,44.61604938271605,0)" xlink:href="#aD"/><use transform="matrix(0.043827160493827164,0,0,0.043827160493827164,52.50493827160494,0)" xlink:href="#ap"/><use transform="matrix(0.043827160493827164,0,0,0.043827160493827164,61.27037037037037,0)" xlink:href="#aq"/></g><g id="s"><use transform="matrix(0.043827160493827164,0,0,0.043827160493827164,0,0)" xlink:href="#aB"/><use transform="matrix(0.043827160493827164,0,0,0.043827160493827164,8.765432098765432,0)" xlink:href="#aE"/><use transform="matrix(0.043827160493827164,0,0,0.043827160493827164,13.980864197530863,0)" xlink:href="#ap"/></g><g id="t"><use transform="matrix(0.043827160493827164,0,0,0.043827160493827164,0,0)" xlink:href="#aq"/><use transform="matrix(0.043827160493827164,0,0,0.043827160493827164,7.888888888888889,0)" xlink:href="#ap"/><use transform="matrix(0.043827160493827164,0,0,0.043827160493827164,16.654320987654323,0)" xlink:href="#ag"/><use transform="matrix(0.043827160493827164,0,0,0.043827160493827164,25.419753086419753,0)" xlink:href="#aF"/></g><g id="u"><use transform="matrix(0.043827160493827164,0,0,0.043827160493827164,0,0)" xlink:href="#aF"/><use transform="matrix(0.043827160493827164,0,0,0.043827160493827164,4.382716049382716,0)" xlink:href="#ai"/></g><g id="v"><use transform="matrix(0.043827160493827164,0,0,0.043827160493827164,0,0)" xlink:href="#ap"/><use transform="matrix(0.043827160493827164,0,0,0.043827160493827164,8.765432098765432,0)" xlink:href="#ag"/><use transform="matrix(0.043827160493827164,0,0,0.043827160493827164,17.530864197530864,0)" xlink:href="#ah"/><use transform="matrix(0.043827160493827164,0,0,0.043827160493827164,25.419753086419753,0)" xlink:href="#ai"/><use transform="matrix(0.043827160493827164,0,0,0.043827160493827164,34.18518518518518,0)" xlink:href="#aj"/></g><g id="w"><use transform="matrix(0.043827160493827164,0,0,0.043827160493827164,0,0)" xlink:href="#aD"/><use transform="matrix(0.043827160493827164,0,0,0.043827160493827164,7.888888888888889,0)" xlink:href="#az"/><use transform="matrix(0.043827160493827164,0,0,0.043827160493827164,11.351234567901235,0)" xlink:href="#am"/><use transform="matrix(0.043827160493827164,0,0,0.043827160493827164,14.813580246913581,0)" xlink:href="#ap"/><use transform="matrix(0.043827160493827164,0,0,0.043827160493827164,23.579012345679008,0)" xlink:href="#ag"/><use transform="matrix(0.043827160493827164,0,0,0.043827160493827164,32.34444444444444,0)" xlink:href="#aF"/><use transform="matrix(0.043827160493827164,0,0,0.043827160493827164,36.72716049382716,0)" xlink:href="#aq"/></g><g id="x"><use transform="matrix(0.043827160493827164,0,0,0.043827160493827164,0,0)" xlink:href="#af"/><use transform="matrix(0.043827160493827164,0,0,0.043827160493827164,10.518518518518519,0)" xlink:href="#ag"/><use transform="matrix(0.043827160493827164,0,0,0.043827160493827164,19.28395061728395,0)" xlink:href="#ah"/><use transform="matrix(0.043827160493827164,0,0,0.043827160493827164,27.172839506172835,0)" xlink:href="#ai"/><use transform="matrix(0.043827160493827164,0,0,0.043827160493827164,35.93827160493827,0)" xlink:href="#aj"/><use transform="matrix(0.043827160493827164,0,0,0.043827160493827164,43.827160493827165,0)" xlink:href="#ak"/><use transform="matrix(0.043827160493827164,0,0,0.043827160493827164,55.1783950617284,0)" xlink:href="#ai"/><use transform="matrix(0.043827160493827164,0,0,0.043827160493827164,63.94382716049383,0)" xlink:href="#ag"/><use transform="matrix(0.043827160493827164,0,0,0.043827160493827164,72.70925925925927,0)" xlink:href="#al"/><use transform="matrix(0.043827160493827164,0,0,0.043827160493827164,77.09197530864199,0)" xlink:href="#am"/><use transform="matrix(0.043827160493827164,0,0,0.043827160493827164,80.55432098765434,0)" xlink:href="#an"/><use transform="matrix(0.043827160493827164,0,0,0.043827160493827164,89.31975308641977,0)" xlink:href="#ao"/><use transform="matrix(0.043827160493827164,0,0,0.043827160493827164,100.670987654321,0)" xlink:href="#ap"/><use transform="matrix(0.043827160493827164,0,0,0.043827160493827164,109.43641975308643,0)" xlink:href="#ah"/><use transform="matrix(0.043827160493827164,0,0,0.043827160493827164,117.32530864197531,0)" xlink:href="#am"/><use transform="matrix(0.043827160493827164,0,0,0.043827160493827164,120.78765432098766,0)" xlink:href="#aq"/><use transform="matrix(0.043827160493827164,0,0,0.043827160493827164,128.67654320987654,0)" xlink:href="#am"/><use transform="matrix(0.043827160493827164,0,0,0.043827160493827164,132.13888888888889,0)" xlink:href="#ai"/><use transform="matrix(0.043827160493827164,0,0,0.043827160493827164,140.90432098765433,0)" xlink:href="#ag"/></g><g id="y"><use transform="matrix(0.043827160493827164,0,0,0.043827160493827164,0,0)" xlink:href="#ag"/><use transform="matrix(0.043827160493827164,0,0,0.043827160493827164,8.765432098765432,0)" xlink:href="#ai"/><use transform="matrix(0.043827160493827164,0,0,0.043827160493827164,17.530864197530864,0)" xlink:href="#ar"/><use transform="matrix(0.043827160493827164,0,0,0.043827160493827164,26.296296296296298,0)" xlink:href="#ap"/><use transform="matrix(0.043827160493827164,0,0,0.043827160493827164,35.06172839506173,0)" xlink:href="#as"/><use transform="matrix(0.043827160493827164,0,0,0.043827160493827164,39.44444444444444,0)" xlink:href="#at"/><use transform="matrix(0.043827160493827164,0,0,0.043827160493827164,50.79567901234568,0)" xlink:href="#au"/></g><use transform="matrix(0.043827160493827164,0,0,0.043827160493827164,0,0)" xlink:href="#av" id="z"/><g id="A"><use transform="matrix(0.043827160493827164,0,0,0.043827160493827164,0,0)" xlink:href="#aw"/><use transform="matrix(0.043827160493827164,0,0,0.043827160493827164,8.765432098765432,0)" xlink:href="#ax"/><use transform="matrix(0.043827160493827164,0,0,0.043827160493827164,17.530864197530864,0)" xlink:href="#ay"/><use transform="matrix(0.043827160493827164,0,0,0.043827160493827164,26.296296296296298,0)" xlink:href="#az"/><use transform="matrix(0.043827160493827164,0,0,0.043827160493827164,29.758641975308645,0)" xlink:href="#am"/><use transform="matrix(0.043827160493827164,0,0,0.043827160493827164,33.220987654320986,0)" xlink:href="#aq"/><use transform="matrix(0.043827160493827164,0,0,0.043827160493827164,41.10987654320988,0)" xlink:href="#aA"/><use transform="matrix(0.043827160493827164,0,0,0.043827160493827164,49.87530864197531,0)" xlink:href="#ap"/><use transform="matrix(0.043827160493827164,0,0,0.043827160493827164,58.64074074074073,0)" xlink:href="#ar"/><use transform="matrix(0.043827160493827164,0,0,0.043827160493827164,67.40617283950617,0)" xlink:href="#au"/></g><g id="B"><use transform="matrix(0.043827160493827164,0,0,0.043827160493827164,0,0)" xlink:href="#al"/><use transform="matrix(0.043827160493827164,0,0,0.043827160493827164,4.382716049382716,0)" xlink:href="#aB"/><use transform="matrix(0.043827160493827164,0,0,0.043827160493827164,13.148148148148149,0)" xlink:href="#az"/><use transform="matrix(0.043827160493827164,0,0,0.043827160493827164,16.610493827160496,0)" xlink:href="#aq"/><use transform="matrix(0.043827160493827164,0,0,0.043827160493827164,24.499382716049386,0)" xlink:href="#ap"/></g><g id="C"><use transform="matrix(0.05,0,0,0.05,0,0)" xlink:href="#ag"/><use transform="matrix(0.05,0,0,0.05,10,0)" xlink:href="#ai"/><use transform="matrix(0.05,0,0,0.05,20,0)" xlink:href="#ar"/><use transform="matrix(0.05,0,0,0.05,30,0)" xlink:href="#ap"/><use transform="matrix(0.05,0,0,0.05,40,0)" xlink:href="#as"/><use transform="matrix(0.05,0,0,0.05,45,0)" xlink:href="#at"/><use transform="matrix(0.05,0,0,0.05,57.95,0)" xlink:href="#au"/></g><use transform="matrix(0.05,0,0,0.05,0,0)" xlink:href="#av" id="D"/><g id="E"><use transform="matrix(0.05,0,0,0.05,0,0)" xlink:href="#aw"/><use transform="matrix(0.05,0,0,0.05,10,0)" xlink:href="#ax"/><use transform="matrix(0.05,0,0,0.05,20,0)" xlink:href="#ay"/><use transform="matrix(0.05,0,0,0.05,30,0)" xlink:href="#az"/><use transform="matrix(0.05,0,0,0.05,33.95,0)" xlink:href="#am"/><use transform="matrix(0.05,0,0,0.05,37.900000000000006,0)" xlink:href="#aq"/><use transform="matrix(0.05,0,0,0.05,46.900000000000006,0)" xlink:href="#aA"/><use transform="matrix(0.05,0,0,0.05,56.900000000000006,0)" xlink:href="#ap"/><use transform="matrix(0.05,0,0,0.05,66.9,0)" xlink:href="#ar"/><use transform="matrix(0.05,0,0,0.05,76.9,0)" xlink:href="#au"/></g><g id="F"><use transform="matrix(0.05,0,0,0.05,0,0)" xlink:href="#aF"/><use transform="matrix(0.05,0,0,0.05,5,0)" xlink:href="#aE"/><use transform="matrix(0.05,0,0,0.05,10.95,0)" xlink:href="#ax"/><use transform="matrix(0.05,0,0,0.05,20.95,0)" xlink:href="#ap"/></g><g id="G"><use transform="matrix(0.043827160493827164,0,0,0.043827160493827164,0,0)" xlink:href="#aD"/><use transform="matrix(0.043827160493827164,0,0,0.043827160493827164,7.888888888888889,0)" xlink:href="#ai"/><use transform="matrix(0.043827160493827164,0,0,0.043827160493827164,16.654320987654323,0)" xlink:href="#ag"/><use transform="matrix(0.043827160493827164,0,0,0.043827160493827164,25.419753086419753,0)" xlink:href="#aF"/><use transform="matrix(0.043827160493827164,0,0,0.043827160493827164,29.802469135802465,0)" xlink:href="#aE"/><use transform="matrix(0.043827160493827164,0,0,0.043827160493827164,35.0179012345679,0)" xlink:href="#ai"/><use transform="matrix(0.043827160493827164,0,0,0.043827160493827164,43.78333333333333,0)" xlink:href="#az"/><use transform="matrix(0.043827160493827164,0,0,0.043827160493827164,47.245679012345676,0)" xlink:href="#az"/><use transform="matrix(0.043827160493827164,0,0,0.043827160493827164,50.70802469135802,0)" xlink:href="#ap"/><use transform="matrix(0.043827160493827164,0,0,0.043827160493827164,59.47345679012345,0)" xlink:href="#aE"/></g><path d="M143 0L79-87 56-68V0H24v-261h32v163l83-92h37l-77 82L181 0h-38" id="aI"/><g id="H"><use transform="matrix(0.043827160493827164,0,0,0.043827160493827164,0,0)" xlink:href="#aw"/><use transform="matrix(0.043827160493827164,0,0,0.043827160493827164,8.765432098765432,0)" xlink:href="#am"/><use transform="matrix(0.043827160493827164,0,0,0.043827160493827164,12.227777777777778,0)" xlink:href="#aD"/><use transform="matrix(0.043827160493827164,0,0,0.043827160493827164,20.116666666666667,0)" xlink:href="#aI"/><use transform="matrix(0.043827160493827164,0,0,0.043827160493827164,28.005555555555556,0)" xlink:href="#aq"/></g><g id="I"><use transform="matrix(0.043827160493827164,0,0,0.043827160493827164,0,0)" xlink:href="#ax"/><use transform="matrix(0.043827160493827164,0,0,0.043827160493827164,8.765432098765432,0)" xlink:href="#aw"/></g><g id="J"><use transform="matrix(0.043827160493827164,0,0,0.043827160493827164,0,0)" xlink:href="#ap"/><use transform="matrix(0.043827160493827164,0,0,0.043827160493827164,8.765432098765432,0)" xlink:href="#ah"/><use transform="matrix(0.043827160493827164,0,0,0.043827160493827164,16.654320987654323,0)" xlink:href="#ap"/><use transform="matrix(0.043827160493827164,0,0,0.043827160493827164,25.419753086419753,0)" xlink:href="#ag"/><use transform="matrix(0.043827160493827164,0,0,0.043827160493827164,34.18518518518518,0)" xlink:href="#aF"/></g><g id="K"><use transform="matrix(0.043827160493827164,0,0,0.043827160493827164,0,0)" xlink:href="#ai"/><use transform="matrix(0.043827160493827164,0,0,0.043827160493827164,8.765432098765432,0)" xlink:href="#ag"/></g><g id="L"><use transform="matrix(0.043827160493827164,0,0,0.043827160493827164,0,0)" xlink:href="#af"/><use transform="matrix(0.043827160493827164,0,0,0.043827160493827164,10.518518518518519,0)" xlink:href="#ag"/><use transform="matrix(0.043827160493827164,0,0,0.043827160493827164,19.28395061728395,0)" xlink:href="#ah"/><use transform="matrix(0.043827160493827164,0,0,0.043827160493827164,27.172839506172835,0)" xlink:href="#ai"/><use transform="matrix(0.043827160493827164,0,0,0.043827160493827164,35.93827160493827,0)" xlink:href="#aj"/><use transform="matrix(0.043827160493827164,0,0,0.043827160493827164,43.827160493827165,0)" xlink:href="#ak"/><use transform="matrix(0.043827160493827164,0,0,0.043827160493827164,55.1783950617284,0)" xlink:href="#ai"/><use transform="matrix(0.043827160493827164,0,0,0.043827160493827164,63.94382716049383,0)" xlink:href="#ag"/><use transform="matrix(0.043827160493827164,0,0,0.043827160493827164,72.70925925925927,0)" xlink:href="#al"/><use transform="matrix(0.043827160493827164,0,0,0.043827160493827164,77.09197530864199,0)" xlink:href="#am"/><use transform="matrix(0.043827160493827164,0,0,0.043827160493827164,80.55432098765434,0)" xlink:href="#an"/><use transform="matrix(0.043827160493827164,0,0,0.043827160493827164,89.31975308641977,0)" xlink:href="#ao"/><use transform="matrix(0.043827160493827164,0,0,0.043827160493827164,100.670987654321,0)" xlink:href="#ap"/><use transform="matrix(0.043827160493827164,0,0,0.043827160493827164,109.43641975308643,0)" xlink:href="#ah"/><use transform="matrix(0.043827160493827164,0,0,0.043827160493827164,117.32530864197531,0)" xlink:href="#am"/><use transform="matrix(0.043827160493827164,0,0,0.043827160493827164,120.78765432098766,0)" xlink:href="#aq"/><use transform="matrix(0.043827160493827164,0,0,0.043827160493827164,128.67654320987654,0)" xlink:href="#am"/><use transform="matrix(0.043827160493827164,0,0,0.043827160493827164,132.13888888888889,0)" xlink:href="#ai"/><use transform="matrix(0.043827160493827164,0,0,0.043827160493827164,140.90432098765433,0)" xlink:href="#ag"/></g><g id="M"><use transform="matrix(0.043827160493827164,0,0,0.043827160493827164,0,0)" xlink:href="#af"/><use transform="matrix(0.043827160493827164,0,0,0.043827160493827164,10.518518518518519,0)" xlink:href="#ag"/><use transform="matrix(0.043827160493827164,0,0,0.043827160493827164,19.28395061728395,0)" xlink:href="#ah"/><use transform="matrix(0.043827160493827164,0,0,0.043827160493827164,27.172839506172835,0)" xlink:href="#ai"/><use transform="matrix(0.043827160493827164,0,0,0.043827160493827164,35.93827160493827,0)" xlink:href="#aj"/><use transform="matrix(0.043827160493827164,0,0,0.043827160493827164,43.827160493827165,0)" xlink:href="#ak"/><use transform="matrix(0.043827160493827164,0,0,0.043827160493827164,55.1783950617284,0)" xlink:href="#ai"/><use transform="matrix(0.043827160493827164,0,0,0.043827160493827164,63.94382716049383,0)" xlink:href="#ag"/><use transform="matrix(0.043827160493827164,0,0,0.043827160493827164,72.70925925925927,0)" xlink:href="#al"/><use transform="matrix(0.043827160493827164,0,0,0.043827160493827164,77.09197530864199,0)" xlink:href="#am"/><use transform="matrix(0.043827160493827164,0,0,0.043827160493827164,80.55432098765434,0)" xlink:href="#an"/></g><use transform="matrix(0.043827160493827164,0,0,0.043827160493827164,0,0)" xlink:href="#av" id="N"/><path d="M33 0v-38h34V0H33" id="aJ"/><g id="O"><use transform="matrix(0.043827160493827164,0,0,0.043827160493827164,0,0)" xlink:href="#aq"/><use transform="matrix(0.043827160493827164,0,0,0.043827160493827164,7.888888888888889,0)" xlink:href="#aw"/><use transform="matrix(0.043827160493827164,0,0,0.043827160493827164,16.654320987654323,0)" xlink:href="#ap"/><use transform="matrix(0.043827160493827164,0,0,0.043827160493827164,25.419753086419753,0)" xlink:href="#aD"/><use transform="matrix(0.043827160493827164,0,0,0.043827160493827164,33.308641975308646,0)" xlink:href="#aJ"/><use transform="matrix(0.043827160493827164,0,0,0.043827160493827164,37.69135802469136,0)" xlink:href="#ap"/><use transform="matrix(0.043827160493827164,0,0,0.043827160493827164,46.45679012345679,0)" xlink:href="#ag"/><use transform="matrix(0.043827160493827164,0,0,0.043827160493827164,55.22222222222223,0)" xlink:href="#ah"/><use transform="matrix(0.043827160493827164,0,0,0.043827160493827164,63.111111111111114,0)" xlink:href="#ai"/><use transform="matrix(0.043827160493827164,0,0,0.043827160493827164,71.87654320987654,0)" xlink:href="#aj"/><use transform="matrix(0.043827160493827164,0,0,0.043827160493827164,79.76543209876543,0)" xlink:href="#ao"/><use transform="matrix(0.043827160493827164,0,0,0.043827160493827164,91.11666666666666,0)" xlink:href="#ap"/><use transform="matrix(0.043827160493827164,0,0,0.043827160493827164,99.88209876543209,0)" xlink:href="#aq"/><use transform="matrix(0.043827160493827164,0,0,0.043827160493827164,107.77098765432098,0)" xlink:href="#ai"/><use transform="matrix(0.043827160493827164,0,0,0.043827160493827164,116.5364197530864,0)" xlink:href="#ax"/><use transform="matrix(0.043827160493827164,0,0,0.043827160493827164,125.30185185185184,0)" xlink:href="#aE"/><use transform="matrix(0.043827160493827164,0,0,0.043827160493827164,130.51728395061727,0)" xlink:href="#aD"/><use transform="matrix(0.043827160493827164,0,0,0.043827160493827164,138.40617283950616,0)" xlink:href="#ap"/><use transform="matrix(0.043827160493827164,0,0,0.043827160493827164,147.1716049382716,0)" xlink:href="#aq"/></g><g id="P"><use transform="matrix(0.043827160493827164,0,0,0.043827160493827164,0,0)" xlink:href="#aD"/><use transform="matrix(0.043827160493827164,0,0,0.043827160493827164,7.888888888888889,0)" xlink:href="#aA"/><use transform="matrix(0.043827160493827164,0,0,0.043827160493827164,16.654320987654323,0)" xlink:href="#aB"/><use transform="matrix(0.043827160493827164,0,0,0.043827160493827164,25.419753086419753,0)" xlink:href="#ag"/><use transform="matrix(0.043827160493827164,0,0,0.043827160493827164,34.18518518518518,0)" xlink:href="#an"/><use transform="matrix(0.043827160493827164,0,0,0.043827160493827164,42.95061728395061,0)" xlink:href="#ap"/></g><g id="Q"><use transform="matrix(0.043827160493827164,0,0,0.043827160493827164,0,0)" xlink:href="#ak"/><use transform="matrix(0.043827160493827164,0,0,0.043827160493827164,11.351234567901235,0)" xlink:href="#aE"/><use transform="matrix(0.043827160493827164,0,0,0.043827160493827164,16.566666666666666,0)" xlink:href="#ap"/><use transform="matrix(0.043827160493827164,0,0,0.043827160493827164,25.3320987654321,0)" xlink:href="#aB"/><use transform="matrix(0.043827160493827164,0,0,0.043827160493827164,34.09753086419753,0)" xlink:href="#aF"/><use transform="matrix(0.043827160493827164,0,0,0.043827160493827164,38.480246913580245,0)" xlink:href="#ap"/></g><g id="R"><use transform="matrix(0.043827160493827164,0,0,0.043827160493827164,0,0)" xlink:href="#ag"/><use transform="matrix(0.043827160493827164,0,0,0.043827160493827164,8.765432098765432,0)" xlink:href="#ap"/><use transform="matrix(0.043827160493827164,0,0,0.043827160493827164,17.530864197530864,0)" xlink:href="#aH"/></g><g id="S"><use transform="matrix(0.043827160493827164,0,0,0.043827160493827164,0,0)" xlink:href="#af"/><use transform="matrix(0.043827160493827164,0,0,0.043827160493827164,10.518518518518519,0)" xlink:href="#ag"/><use transform="matrix(0.043827160493827164,0,0,0.043827160493827164,19.28395061728395,0)" xlink:href="#ah"/><use transform="matrix(0.043827160493827164,0,0,0.043827160493827164,27.172839506172835,0)" xlink:href="#ai"/><use transform="matrix(0.043827160493827164,0,0,0.043827160493827164,35.93827160493827,0)" xlink:href="#aj"/><use transform="matrix(0.043827160493827164,0,0,0.043827160493827164,43.827160493827165,0)" xlink:href="#ak"/><use transform="matrix(0.043827160493827164,0,0,0.043827160493827164,55.1783950617284,0)" xlink:href="#ai"/><use transform="matrix(0.043827160493827164,0,0,0.043827160493827164,63.94382716049383,0)" xlink:href="#ag"/><use transform="matrix(0.043827160493827164,0,0,0.043827160493827164,72.70925925925927,0)" xlink:href="#al"/><use transform="matrix(0.043827160493827164,0,0,0.043827160493827164,77.09197530864199,0)" xlink:href="#am"/><use transform="matrix(0.043827160493827164,0,0,0.043827160493827164,80.55432098765434,0)" xlink:href="#an"/><use transform="matrix(0.043827160493827164,0,0,0.043827160493827164,89.31975308641977,0)" xlink:href="#ao"/><use transform="matrix(0.043827160493827164,0,0,0.043827160493827164,100.670987654321,0)" xlink:href="#ap"/><use transform="matrix(0.043827160493827164,0,0,0.043827160493827164,109.43641975308643,0)" xlink:href="#ah"/><use transform="matrix(0.043827160493827164,0,0,0.043827160493827164,117.32530864197531,0)" xlink:href="#am"/><use transform="matrix(0.043827160493827164,0,0,0.043827160493827164,120.78765432098766,0)" xlink:href="#aq"/><use transform="matrix(0.043827160493827164,0,0,0.043827160493827164,128.67654320987654,0)" xlink:href="#am"/><use transform="matrix(0.043827160493827164,0,0,0.043827160493827164,132.13888888888889,0)" xlink:href="#ai"/><use transform="matrix(0.043827160493827164,0,0,0.043827160493827164,140.90432098765433,0)" xlink:href="#ag"/></g><g id="U"><use transform="matrix(0.043827160493827164,0,0,0.043827160493827164,0,0)" xlink:href="#aH"/><use transform="matrix(0.043827160493827164,0,0,0.043827160493827164,11.351234567901235,0)" xlink:href="#am"/><use transform="matrix(0.043827160493827164,0,0,0.043827160493827164,14.813580246913581,0)" xlink:href="#aF"/><use transform="matrix(0.043827160493827164,0,0,0.043827160493827164,19.196296296296296,0)" xlink:href="#aA"/></g><g id="V"><use transform="matrix(0.043827160493827164,0,0,0.043827160493827164,0,0)" xlink:href="#aq"/><use transform="matrix(0.043827160493827164,0,0,0.043827160493827164,7.888888888888889,0)" xlink:href="#aw"/><use transform="matrix(0.043827160493827164,0,0,0.043827160493827164,16.654320987654323,0)" xlink:href="#ap"/><use transform="matrix(0.043827160493827164,0,0,0.043827160493827164,25.419753086419753,0)" xlink:href="#aD"/><use transform="matrix(0.043827160493827164,0,0,0.043827160493827164,33.308641975308646,0)" xlink:href="#aJ"/><use transform="matrix(0.043827160493827164,0,0,0.043827160493827164,37.69135802469136,0)" xlink:href="#ap"/><use transform="matrix(0.043827160493827164,0,0,0.043827160493827164,46.45679012345679,0)" xlink:href="#ag"/><use transform="matrix(0.043827160493827164,0,0,0.043827160493827164,55.22222222222223,0)" xlink:href="#ah"/><use transform="matrix(0.043827160493827164,0,0,0.043827160493827164,63.111111111111114,0)" xlink:href="#ai"/><use transform="matrix(0.043827160493827164,0,0,0.043827160493827164,71.87654320987654,0)" xlink:href="#aj"/><use transform="matrix(0.043827160493827164,0,0,0.043827160493827164,79.76543209876543,0)" xlink:href="#ao"/><use transform="matrix(0.043827160493827164,0,0,0.043827160493827164,91.11666666666666,0)" xlink:href="#ap"/><use transform="matrix(0.043827160493827164,0,0,0.043827160493827164,99.88209876543209,0)" xlink:href="#aq"/><use transform="matrix(0.043827160493827164,0,0,0.043827160493827164,107.77098765432098,0)" xlink:href="#ai"/><use transform="matrix(0.043827160493827164,0,0,0.043827160493827164,116.5364197530864,0)" xlink:href="#ax"/><use transform="matrix(0.043827160493827164,0,0,0.043827160493827164,125.30185185185184,0)" xlink:href="#aE"/><use transform="matrix(0.043827160493827164,0,0,0.043827160493827164,130.51728395061727,0)" xlink:href="#aD"/><use transform="matrix(0.043827160493827164,0,0,0.043827160493827164,138.40617283950616,0)" xlink:href="#ap"/><use transform="matrix(0.043827160493827164,0,0,0.043827160493827164,147.1716049382716,0)" xlink:href="#aq"/></g><g id="W"><use transform="matrix(0.043827160493827164,0,0,0.043827160493827164,0,0)" xlink:href="#aB"/><use transform="matrix(0.043827160493827164,0,0,0.043827160493827164,8.765432098765432,0)" xlink:href="#ag"/><use transform="matrix(0.043827160493827164,0,0,0.043827160493827164,17.530864197530864,0)" xlink:href="#ar"/></g><path d="M210-169c-67 3-38 105-44 169h-31v-121c0-29-5-50-35-48C34-165 62-65 56 0H25l-1-190h30c1 10-1 24 2 32 10-44 99-50 107 0 11-21 27-35 58-36 85-2 47 119 55 194h-31v-121c0-29-5-49-35-48" id="aK"/><g id="X"><use transform="matrix(0.043827160493827164,0,0,0.043827160493827164,0,0)" xlink:href="#aK"/><use transform="matrix(0.043827160493827164,0,0,0.043827160493827164,13.104320987654322,0)" xlink:href="#aB"/><use transform="matrix(0.043827160493827164,0,0,0.043827160493827164,21.869753086419756,0)" xlink:href="#aE"/><use transform="matrix(0.043827160493827164,0,0,0.043827160493827164,27.085185185185185,0)" xlink:href="#aI"/></g><g id="Y"><use transform="matrix(0.043827160493827164,0,0,0.043827160493827164,0,0)" xlink:href="#am"/><use transform="matrix(0.043827160493827164,0,0,0.043827160493827164,3.462345679012346,0)" xlink:href="#aF"/></g><g id="Z"><use transform="matrix(0.043827160493827164,0,0,0.043827160493827164,0,0)" xlink:href="#aB"/><use transform="matrix(0.043827160493827164,0,0,0.043827160493827164,8.765432098765432,0)" xlink:href="#aq"/></g><g id="aa"><use transform="matrix(0.043827160493827164,0,0,0.043827160493827164,0,0)" xlink:href="#aw"/><use transform="matrix(0.043827160493827164,0,0,0.043827160493827164,8.765432098765432,0)" xlink:href="#ax"/><use transform="matrix(0.043827160493827164,0,0,0.043827160493827164,17.530864197530864,0)" xlink:href="#ay"/><use transform="matrix(0.043827160493827164,0,0,0.043827160493827164,26.296296296296298,0)" xlink:href="#az"/><use transform="matrix(0.043827160493827164,0,0,0.043827160493827164,29.758641975308645,0)" xlink:href="#am"/><use transform="matrix(0.043827160493827164,0,0,0.043827160493827164,33.220987654320986,0)" xlink:href="#aq"/><use transform="matrix(0.043827160493827164,0,0,0.043827160493827164,41.10987654320988,0)" xlink:href="#aA"/><use transform="matrix(0.043827160493827164,0,0,0.043827160493827164,49.87530864197531,0)" xlink:href="#ap"/><use transform="matrix(0.043827160493827164,0,0,0.043827160493827164,58.64074074074073,0)" xlink:href="#ar"/></g><g id="ab"><use transform="matrix(0.05,0,0,0.05,0,0)" xlink:href="#ag"/><use transform="matrix(0.05,0,0,0.05,10,0)" xlink:href="#ai"/><use transform="matrix(0.05,0,0,0.05,20,0)" xlink:href="#ar"/><use transform="matrix(0.05,0,0,0.05,30,0)" xlink:href="#ap"/><use transform="matrix(0.05,0,0,0.05,40,0)" xlink:href="#as"/><use transform="matrix(0.05,0,0,0.05,45,0)" xlink:href="#at"/><use transform="matrix(0.05,0,0,0.05,57.95,0)" xlink:href="#au"/></g><use transform="matrix(0.05,0,0,0.05,0,0)" xlink:href="#av" id="ac"/><path d="M144 0l-44-69L55 0H2l70-98-66-92h53l41 62 40-62h54l-67 91 71 99h-54" id="aL"/><path d="M24-248c120-7 223 5 221 122C244-46 201 0 124 0H24v-248zM76-40c74 7 117-18 117-86 0-67-45-88-117-82v168" id="aM"/><path d="M169-182c-1-43-94-46-97-3 18 66 151 10 154 114 3 95-165 93-204 36-6-8-10-19-12-30l50-8c3 46 112 56 116 5-17-69-150-10-154-114-4-87 153-88 188-35 5 8 8 18 10 28" id="aN"/><g id="ad"><use transform="matrix(0.05,0,0,0.05,0,0)" xlink:href="#aL"/><use transform="matrix(0.05,0,0,0.05,10,0)" xlink:href="#aM"/><use transform="matrix(0.05,0,0,0.05,22.950000000000003,0)" xlink:href="#aN"/></g><path d="M185-48c-13 30-37 53-82 52C43 2 14-33 14-96s30-98 90-98c62 0 83 45 84 108H66c0 31 8 55 39 56 18 0 30-7 34-22zm-45-69c5-46-57-63-70-21-2 6-4 13-4 21h74" id="aO"/><path d="M135-150c-39-12-60 13-60 57V0H25l-1-190h47c2 13-1 29 3 40 6-28 27-53 61-41v41" id="aP"/><path d="M128 0H69L1-190h53L99-40l48-150h52" id="aQ"/><g id="ae"><use transform="matrix(0.05,0,0,0.05,0,0)" xlink:href="#aN"/><use transform="matrix(0.05,0,0,0.05,12,0)" xlink:href="#aO"/><use transform="matrix(0.05,0,0,0.05,22,0)" xlink:href="#aP"/><use transform="matrix(0.05,0,0,0.05,29,0)" xlink:href="#aQ"/><use transform="matrix(0.05,0,0,0.05,39,0)" xlink:href="#aO"/><use transform="matrix(0.05,0,0,0.05,49,0)" xlink:href="#aP"/></g></defs></g></svg>